<?xml version="1.0" encoding="UTF-8" standalone="no"?>
<!-- Created with Inkscape (http://www.inkscape.org/) -->

<svg
   id="svg5"
   version="1.1"
   viewBox="0 0 170 100"
   height="100mm"
   width="170mm"
   sodipodi:docname="ion2.svg"
   inkscape:version="1.1.2 (0a00cf5339, 2022-02-04)"
   xmlns:inkscape="http://www.inkscape.org/namespaces/inkscape"
   xmlns:sodipodi="http://sodipodi.sourceforge.net/DTD/sodipodi-0.dtd"
   xmlns="http://www.w3.org/2000/svg"
   xmlns:svg="http://www.w3.org/2000/svg">
  <sodipodi:namedview
     id="namedview7"
     pagecolor="#ffffff"
     bordercolor="#666666"
     borderopacity="1.0"
     inkscape:pageshadow="2"
     inkscape:pageopacity="0.0"
     inkscape:pagecheckerboard="0"
     inkscape:document-units="mm"
     showgrid="true"
     width="170mm"
     inkscape:snap-global="false"
     inkscape:zoom="3.1606419"
     inkscape:cx="229.70017"
     inkscape:cy="237.92635"
     inkscape:window-width="1037"
     inkscape:window-height="687"
     inkscape:window-x="49"
     inkscape:window-y="35"
     inkscape:window-maximized="0"
     inkscape:current-layer="layer1">
    <inkscape:grid
       type="xygrid"
       id="grid824" />
  </sodipodi:namedview>
  <defs
     id="defs2" />
  <g
     inkscape:label="Layer 1"
     inkscape:groupmode="layer"
     id="layer1">
    <path
       id="path1820-3-1"
       style="color:#000000;overflow:visible;fill:none;stroke:#56a1e6;stroke-width:0.352778;stroke-linecap:square;stroke-linejoin:round;stroke-miterlimit:4;stroke-dasharray:none;stroke-dashoffset:171.418;stroke-opacity:1;stop-color:#000000"
       d="m 57.605581,40.693165 c 0.104088,9.53147 0.209751,40.33573 0.314729,40.7009 0.151924,0.0205 0.303985,0.0342 0.456183,0.0479 0.09177,-11.92509 0.183541,-32.74999 0.275859,-32.89596 0.121126,-0.19161 0.242466,13.50058 0.364276,13.3076 0.12113,-0.19298 0.24171,0.555 0.36428,0.36065 0.0547,-0.0869 0.11134,9.69988 0.16622,19.28424 0.13311,0.005 0.26642,0.0137 0.39966,0.0137 0.0541,-9.6129 0.10792,-19.40572 0.1626,-19.49283 0.12044,-0.1923 0.24315,6.60945 0.36427,6.4151 0.12113,-0.19299 0.24178,8.09612 0.36428,7.9004 0.11983,-0.1923 0.23959,-32.74123 0.36072,-32.9349 0.11914,-0.19162 0.189388,13.668283 0.36071,20.50079 0.09263,3.694016 0.24028,11.27401 0.36072,11.07966 0.12038,-0.19367 0.24246,-17.80545 0.36428,-18.00049 0.12113,-0.19503 0.24178,-2.16594 0.36427,-2.36235 0.11408,-0.18272 0.22837,24.69288 0.34306,26.68952 0.0541,-0.007 0.10847,-0.0137 0.1626,-0.0205 0.0699,-0.75586 0.14235,-1.54956 0.21222,-1.66213 0.12044,-0.19367 0.24027,-23.62011 0.36072,-23.81439 0.12044,-0.19367 0.2389,-6.87081 0.36071,-7.06584 0.12113,-0.19504 0.24247,26.92479 0.36428,26.72838 0.12044,-0.19366 0.24315,-21.91827 0.36428,-22.11331 0.11969,-0.19162 0.23671,21.54955 0.35715,21.35657 0.0301,-0.0479 0.0616,3.80193 0.092,6.12863 0.13003,-0.0342 0.25971,-0.0698 0.38898,-0.10607 0.0802,-16.033 0.16295,-35.98481 0.24404,-36.11415 0.12045,-0.19436 0.24246,33.44884 0.36428,33.25318 0.0704,-0.11223 0.14179,-18.73998 0.21221,-36.33341 m 0.67914,0.2402 c 0.0636,14.96522 0.12709,30.06723 0.191,29.96424 0.12038,-0.1923 0.24028,-26.94847 0.36072,-27.14214 0.12038,-0.19299 0.24315,18.05687 0.36428,17.86251 0.10265,-0.16424 0.20462,-14.93017 0.30768,-20.19304 m 0.61892,0.28674 h -4e-5 c 0.0554,5.12538 0.111,10.3333 0.16622,10.24502 0.0301,-0.0479 0.0616,-6.32908 0.092,-10.11774 m 0.63302,0.33259 c 0.12004,-0.0205 0.23925,30.11356 0.36072,29.92181 0.12044,-0.1923 0.24246,-14.56104 0.36427,-14.75403 0.0742,-0.11839 0.15159,-7.73711 0.22632,-14.61968 m 0.2829,0.17724 c 0.0739,6.94595 0.1481,14.55673 0.22283,14.4393 0.081,-0.12866 0.16294,-7.8397 0.24403,-14.13162 m 0.55528,0.38871 h -4e-5 c 0.10122,2.36625 0.19881,8.65844 0.30057,8.4981 0.12044,-0.19025 0.24246,6.99926 0.36427,6.80764 0.12113,-0.19025 0.24247,1.79715 0.36428,1.60554 0.12188,-0.19093 0.24534,-2.03209 0.36783,-2.22439 0.12257,-0.19093 0.24459,-7.44647 0.36777,-7.63871 0.0335,-0.0547 0.0657,-3.33761 0.099,-5.51683 m -30.445245,27.1457 c 0.05475,-3.27732 0.111,-5.97794 0.166227,-6.02968 0.05338,-0.0479 0.102309,2.87856 0.155551,6.46821 m 0.615361,0.7497 c 0.06878,-6.19126 0.136321,-11.84338 0.205098,-11.91428 0.07535,-0.0773 0.150624,6.08046 0.226312,12.41289 m 0.912407,0.93721 c 0.401367,-9.87891 -0.31076,-19.87887 0.279486,-29.72349 0.140838,2.6131 0.279349,28.46471 0.420802,28.29862 0.0219,-0.0274 0.04517,1.25536 0.06707,2.12536 m 0.806327,0.67887 c 0.0036,-0.0342 0.0075,-0.33807 0.01095,-0.34286 0.14159,-0.17382 0.284207,-23.80131 0.42792,-23.98061 0.140358,-0.17656 0.279212,-1.48434 0.420871,-1.66569 0.138853,-0.17725 0.281196,7.26197 0.420871,7.07994 0.08041,-0.10471 0.159725,10.73707 0.240478,19.98795 m 0.410195,0.258 c 0.0568,-4.2068 0.112643,-8.64401 0.169649,-8.72086 0.134884,-0.18067 0.271205,-1.60472 0.406705,-1.78949 0.04653,-0.0616 0.09451,5.91991 0.141385,10.93827 m 0.912387,0.48451 c 0.04859,-3.88111 0.09636,-8.34413 0.145012,-8.41318 0.130709,-0.18408 0.26183,-7.64924 0.392539,-7.83675 0.05543,-0.0794 0.110453,8.44616 0.166227,16.57883 m 0.410264,0.17724 c 0.06775,-12.3268 0.136731,-24.71868 0.205097,-24.81873 0.128041,-0.18545 0.256834,4.85699 0.385491,4.66811 0.12804,-0.18819 0.256149,16.86598 0.38549,16.6743 0.126535,-0.18683 0.25396,-14.55667 0.381932,-14.74691 0.126535,-0.18957 0.25396,17.17071 0.381932,16.97841 0.125303,-0.18819 0.251838,-9.09574 0.378442,-9.28667 0.116406,-0.17588 0.233019,-24.04002 0.35011,-28.05102 0.43141,3.80071 0.09615,12.03048 0.403009,17.26796 0.124551,-0.19093 0.249649,-11.12003 0.374883,-11.31308 0.123114,-0.18888 0.246775,24.47923 0.371325,24.28829 0.123113,-0.19093 0.246774,-11.4702 0.371325,-11.66319 0.122565,-0.19093 0.247458,20.66901 0.371324,20.47603 0.122566,-0.19025 0.244584,-21.33399 0.367766,-21.52629 0.09218,-0.14302 0.183404,-11.27804 0.275859,-18.07829 m 18.923346,7.37701 h 1.4e-4 c 0.0376,1.30436 0.0723,3.12047 0.10957,3.06251 0.12386,-0.19093 0.24677,-1.03836 0.37132,-1.23066 0.0144,-0.0205 0.0281,-0.9112 0.0424,-1.1564 m 1.25559,1.90261 c 0.0602,6.13418 0.12311,12.27609 0.18388,12.18302 0.0866,-0.13208 0.17505,-6.59241 0.26169,-11.38028"
       sodipodi:nodetypes="cccscsccscccaccsccsccscsccccccccccccccccccccccscscccccccccccccccccscccscccccccsccssccccccsccccscccsc" />
    <path
       style="color:#000000;overflow:visible;fill:none;stroke:#81c3ff;stroke-width:0.176389;stroke-miterlimit:4;stroke-dasharray:none;stroke-dashoffset:171.418;stroke-opacity:1;stop-color:#000000"
       d="m 5,3.6005 c 0.0317,0 0.0639,5.4184 0.0964,5.4329 C 5.1242,9.0458 5.1523,7.841 5.1807,7.8637 5.2047,7.8829 5.2289,2.8768 5.2533,2.9033 5.2744,2.926 5.2956,6.7088 5.3169,6.7368 5.3359,6.7618 5.355,4.9871 5.3742,5.0161 5.3917,5.0425 5.4092,9.0753 5.4269,9.105 5.4432,9.1324 5.4595,9.4521 5.476,9.4823 c 0.0153,0.0283 0.0308,-6.4407 0.0463,-6.41 0.0145,0.0286 0.029,-2.224 0.0436,-2.1934 0.0138,0.0292 0.0277,3.0333 0.0417,3.0643 0.0132,0.0294 0.0265,4.98 0.0399,5.011 0.0129,0.0301 0.0259,-0.0755 0.039,-0.0439 0.0123,0.03 0.0247,-1.5542 0.0371,-1.523 0.0121,0.0303 0.0241,3.3696 0.0362,3.4012 C 5.7716,10.819 5.7833,9.142 5.7951,9.1738 5.8066,9.2045 5.818,5.3419 5.8295,5.3737 5.8406,5.4045 5.8518,6.6336 5.863,6.6653 c 0.0108,0.0308 0.0216,0.4868 0.0325,0.5184 0.0106,0.0311 0.0213,6.2672 0.032,6.2991 0.0105,0.0313 0.0211,1.1551 0.0316,1.1872 0.0102,0.0311 0.0204,-9.1921 0.0306,-9.1603 0.0101,0.0312 0.0201,4.1133 0.0302,4.1452 0.0099,0.0313 0.0198,0.63 0.0297,0.662 0.0098,0.0314 0.0195,-4.3337 0.0293,-4.3017 0.0095,0.0314 0.0191,6.8646 0.0287,6.8966 0.0096,0.0319 0.0192,-4.0462 0.0288,-4.0136 0.0094,0.0318 0.0189,6.764 0.0283,6.7965 0.0093,0.0317 0.0186,-4.5915 0.0278,-4.5591 0.0091,0.0316 0.0183,-3.3172 0.0274,-3.285 0.0089,0.0315 0.0179,2.5947 0.0269,2.6267 C 6.2557,10.5093 6.2647,8.127 6.2736,8.1595 6.2824,8.1912 6.2912,6.17 6.3,6.2022 6.3088,6.2343 6.3176,5.1727 6.3264,5.2053 c 0.0086,0.0318 0.0173,6.4008 0.0259,6.4331 0.0086,0.0323 0.0173,1.1757 0.0259,1.2084 0.0085,0.0319 0.017,-4.7477 0.0255,-4.7154 0.0084,0.0323 0.0169,9.5861 0.0254,9.6188 0.0083,0.0319 0.0166,-3.4456 0.0249,-3.4133 0.0083,0.0322 0.0167,-5.3044 0.025,-5.2717 0.0081,0.0318 0.0163,2.6177 0.0244,2.6499 0.0082,0.0322 0.0163,-2.5887 0.0245,-2.5562 0.0081,0.0324 0.0163,6.527 0.0244,6.5597 0.008,0.032 0.016,-0.9931 0.024,-0.9607 0.008,0.0322 0.0159,-5.9897 0.0239,-5.9571 0.008,0.0325 0.016,1.7628 0.024,1.7957 0.0078,0.032 0.0156,4.2506 0.0235,4.2829 0.0078,0.0323 0.0156,-3.6252 0.0234,-3.5926 0.0078,0.0325 0.0156,1.5087 0.0235,1.5415 0.0076,0.0319 0.0153,-0.6469 0.0229,-0.6146 0.0077,0.0321 0.0153,-2.2995 0.023,-2.2671 0.0076,0.0324 0.0153,7.6093 0.0229,7.642 0.0076,0.0326 0.0153,-7.5327 0.023,-7.4999 0.0074,0.0321 0.0149,4.8929 0.0224,4.9253 0.0075,0.0322 0.0149,0.331 0.0224,0.3635 0.0075,0.0324 0.015,-9.98 0.0225,-9.9474 0.0074,0.0326 0.0149,6.6651 0.0224,6.6979 0.0074,0.0324 0.0148,-4.8722 0.0222,-4.8396 0.0073,0.0321 0.0146,4.0633 0.0219,4.0957 0.0073,0.0323 0.0146,1.5829 0.0219,1.6154 0.0073,0.0324 0.0146,-9.73 0.0219,-9.6974 0.0073,0.0326 0.0146,8.3846 0.0219,8.4174 0.0073,0.0327 0.0146,0.1272 0.0219,0.1601 0.0071,0.0321 0.0142,1.7767 0.0214,1.8091 0.0071,0.0322 0.0142,-1.3682 0.0213,-1.3358 0.0071,0.0324 0.0143,-0.3215 0.0214,-0.2889 0.0071,0.0324 0.0142,0.4187 0.0214,0.4514 0.0071,0.0325 0.0142,3.5368 0.0213,3.5696 0.0071,0.0327 0.0142,-6.8217 0.0213,-6.7888 0.0071,0.0324 0.0141,5.4499 0.0211,5.4825 0.007,0.0322 0.0139,-2.0165 0.0208,-1.9842 0.007,0.0323 0.0139,-0.6416 0.0209,-0.6092 0.0069,0.0324 0.0138,0.5348 0.0208,0.5673 0.0069,0.0325 0.0138,2.5692 0.0208,2.6018 0.0069,0.0325 0.0138,-1.9699 0.0207,-1.9372 0.007,0.0326 0.0139,4.4129 0.0208,4.4457 0.0069,0.0327 0.0139,-2.5669 0.0208,-2.534 0.0069,0.0328 0.0138,-1.8519 0.0207,-1.819 0.0069,0.0325 0.0137,4.8679 0.0205,4.9005 0.0068,0.0326 0.0137,-5.7046 0.0205,-5.6718 0.0067,0.0322 0.0135,-1.9341 0.0202,-1.9017 0.0068,0.0324 0.0135,-1.1603 0.0202,-1.1279 0.0068,0.0324 0.0135,5.1116 0.0202,5.1442 0.0067,0.0324 0.0135,-1.7281 0.0202,-1.6955 0.0067,0.0325 0.0135,1.8502 0.0202,1.8829 0.0067,0.0326 0.0134,-3.423 0.0201,-3.3902 0.0067,0.0326 0.0135,7.8616 0.0202,7.8944 0.0067,0.0328 0.0134,-5.1885 0.0201,-5.1556 0.0067,0.0328 0.0134,0.2485 0.0201,0.2814 0.0067,0.0329 0.0134,0.8727 0.0201,0.9056 0.0067,0.0329 0.0134,4.6206 0.0201,4.6536 0.0066,0.0325 0.0132,-9.0502 0.0198,-9.0175 0.0066,0.0326 0.0133,3.5359 0.0199,3.5687 0.0066,0.0326 0.0132,-2.7906 0.0198,-2.7579 0.0065,0.0323 0.013,-1.1499 0.0195,-1.1175 0.0065,0.0323 0.013,9.7562 0.0195,9.7886 C 7.691,20.7266 7.6975,9.7435 7.704,9.776 c 0.0065,0.0324 0.013,9.4487 0.0195,9.4812 0.0065,0.0325 0.013,-1.8028 0.0195,-1.7703 0.0065,0.0325 0.013,-5.595 0.0195,-5.5624 0.0065,0.0325 0.0129,5.5167 0.0194,5.5493 0.0065,0.0326 0.013,2.0035 0.0195,2.0361 0.0064,0.0326 0.0129,-7.9297 0.0194,-7.897 0.0064,0.0326 0.0129,4.2848 0.0194,4.3175 0.0064,0.0326 0.0129,4.3593 0.0194,4.3921 0.0064,0.0326 0.0129,-10.582 0.0193,-10.5492 0.0065,0.0327 0.0129,4.3259 0.0194,4.3587 0.0064,0.0327 0.0129,-2.7186 0.0193,-2.6858 0.0065,0.0327 0.0129,8.4866 0.0193,8.5195 0.0065,0.0327 0.0129,-0.1968 0.0193,-0.1639 0.0065,0.0328 0.0129,-2.183 0.0193,-2.1501 0.0064,0.0327 0.0129,0.2886 0.0193,0.3215 0.0064,0.0328 0.0128,1.6287 0.0192,1.6616 0.0064,0.0328 0.0128,-1.6859 0.0193,-1.653 0.0064,0.0328 0.0128,-0.0511 0.0192,-0.0182 0.0064,0.0329 0.0128,0.6615 0.0192,0.6944 0.0063,0.0329 0.0127,-1.5757 0.0191,-1.5427 0.0064,0.0329 0.0128,-1.2628 0.0192,-1.2299 0.0064,0.0329 0.0127,3.3371 0.0191,3.37 0.0064,0.0329 0.0128,1.7723 0.0191,1.8052 0.0064,0.0329 0.0128,-6.9588 0.0191,-6.9258 0.0064,0.0329 0.0127,1.2907 0.0191,1.3237 0.0064,0.0329 0.0127,9.7072 0.0191,9.7402 0.0063,0.0329 0.0127,-5.5802 0.019,-5.5472 0.0063,0.0329 0.0127,-3.0386 0.019,-3.0056 0.0064,0.0329 0.0127,7.0621 0.019,7.095 0.0063,0.033 0.0127,-7.1235 0.019,-7.0905 0.0063,0.0329 0.0126,0.8561 0.019,0.8891 0.0063,0.0329 0.0126,4.2783 0.0189,4.3113 0.0063,0.0329 0.0126,-3.8011 0.0189,-3.7681 0.0063,0.0329 0.0126,3.9219 0.0189,3.9549 0.0063,0.0329 0.0126,-0.6576 0.0189,-0.6246 0.0063,0.0329 0.0126,-7.9799 0.0188,-7.9469 0.0063,0.0328 0.0126,3.951 0.0189,3.9839 0.0062,0.0329 0.0125,4.8738 0.0188,4.9067 0.0063,0.0329 0.0125,0.6654 0.0188,0.6983 0.0062,0.0328 0.0125,-8.3401 0.0188,-8.3072 0.0062,0.0328 0.0125,4.618 0.0187,4.6509 0.0062,0.0328 0.0125,0.0215 0.0187,0.0543 0.0063,0.0329 0.0125,-0.9118 0.0187,-0.8789 0.0063,0.0327 0.0125,6.2135 0.0187,6.2463 0.0062,0.0328 0.0125,-8.4289 0.0187,-8.3961 0.0062,0.0328 0.0124,7.3779 0.0186,7.4108 0.0062,0.0327 0.0124,-7.0467 0.0186,-7.014 0.0062,0.0328 0.0124,5.5357 0.0186,5.5685 0.0062,0.0327 0.0124,-1.5337 0.0186,-1.501 0.0062,0.0327 0.0124,-2.6769 0.0186,-2.6442 0.0061,0.0327 0.0123,3.0743 0.0185,3.107 0.0061,0.0326 0.0123,1.2855 0.0185,1.3181 0.0061,0.0326 0.0123,1.5664 0.0185,1.599 0.0061,0.0326 0.0123,-3.9722 0.0184,-3.9396 0.0062,0.0326 0.0123,0.4902 0.0185,0.5228 0.0061,0.0325 0.0122,3.1225 0.0184,3.1551 0.0061,0.0325 0.0122,-3.7529 0.0184,-3.7203 0.0061,0.0325 0.0122,-0.1399 0.0183,-0.1074 0.0061,0.0324 0.0122,0.0599 0.0184,0.0924 0.0061,0.0324 0.0122,5.6889 0.0183,5.7214 0.0061,0.0323 0.0122,-5.3238 0.0183,-5.2913 0.0061,0.0327 0.0123,2.3819 0.0185,2.4147 0.0061,0.0327 0.0123,-2.7581 0.0184,-2.7254 0.0062,0.0327 0.0123,1.0198 0.0185,1.0525 0.0061,0.0327 0.0123,-2.854 0.0184,-2.8213 0.0062,0.033 0.0124,7.4543 0.0186,7.4874 0.0062,0.033 0.0124,-5.3896 0.0187,-5.3566 0.0061,0.0329 0.0123,-0.1621 0.0185,-0.1291 0.0062,0.0329 0.0124,4.35 0.0186,4.3829 0.0061,0.0329 0.0123,-2.2082 0.0185,-2.1753 0.0062,0.0328 0.0123,5.5695 0.0185,5.6023 0.0062,0.0328 0.0123,-2.5858 0.0185,-2.553 0.0061,0.0328 0.0123,-0.4189 0.0184,-0.3861 0.0062,0.0327 0.0123,-2.3508 0.0184,-2.318 0.0062,0.0326 0.0123,-0.3356 0.0184,-0.3029 0.0061,0.0326 0.0123,4.1749 0.0184,4.2076 0.0061,0.0325 0.0122,-4.153 0.0183,-4.1204 0.0061,0.0326 0.0122,-0.0413 0.0184,-0.0087 0.006,0.0324 0.0121,1.164 0.0182,1.1965 0.0061,0.0325 0.0122,-0.4354 0.0183,-0.4029 0.0061,0.0324 0.0122,1.9085 0.0182,1.9409 0.0062,0.0327 0.0123,-3.0022 0.0185,-2.9695 0.0061,0.0327 0.0122,-1.7224 0.0184,-1.6897 0.0062,0.033 0.0124,4.1423 0.0186,4.1753 0.0061,0.033 0.0123,-5.5377 0.0185,-5.5047 0.0062,0.0329 0.0124,3.3273 0.0186,3.3603 0.0061,0.0329 0.0123,-0.3248 0.0185,-0.2919 0.0061,0.0329 0.0123,4.3504 0.0185,4.3832 0.0061,0.0328 0.0123,1.4617 0.0184,1.4944 0.0061,0.0327 0.0123,0.7075 0.0184,0.7402 0.0062,0.0326 0.0123,-5.8753 0.0184,-5.8426 0.0062,0.0326 0.0123,7.2605 0.0184,7.2931 0.0061,0.0325 0.0122,-4.2333 0.0183,-4.2008 0.0061,0.0325 0.0122,-6.9632 0.0183,-6.9307 0.0061,0.0324 0.0122,2.4937 0.0183,2.5261 0.0062,0.0327 0.0123,3.7683 0.0185,3.8011 0.0061,0.0327 0.0123,0.3104 0.0184,0.3431 0.0062,0.033 0.0124,-0.4104 0.0187,-0.3774 0.0062,0.033 0.0123,6.5629 0.0185,6.5959 0.0062,0.0329 0.0124,-5.6265 0.0186,-5.5936 0.0062,0.0328 0.0124,-3.8674 0.0185,-3.8345 0.0062,0.0327 0.0124,-0.1119 0.0185,-0.0791 0.0062,0.0327 0.0124,1.7732 0.0185,1.8059 0.0062,0.0326 0.0123,-2.229 0.0185,-2.1963 0.0061,0.0325 0.0122,3.0552 0.0184,3.0878 0.0061,0.0325 0.0122,-4.1424 0.0183,-4.1099 0.0062,0.0324 0.0123,5.906 0.0184,5.9385 0.0062,0.0327 0.0123,-2.6172 0.0185,-2.5845 0.0062,0.0327 0.0123,1.1775 0.0185,1.2101 0.0062,0.033 0.0125,0.5909 0.0187,0.6239 0.0062,0.0329 0.0124,-1.6821 0.0186,-1.6492 0.0062,0.0328 0.0124,-0.2332 0.0186,-0.2004 0.0062,0.0328 0.0124,0.4877 0.0186,0.5205 0.0062,0.0327 0.0124,0.7514 0.0186,0.7841 0.0061,0.0326 0.0123,2.1318 0.0185,2.1644 0.0061,0.0325 0.0123,-8.4496 0.0185,-8.417 0.0061,0.0325 0.0122,5.8836 0.0184,5.9161 0.0061,0.0324 0.0123,2.7057 0.0184,2.7381 0.0062,0.0326 0.0124,0.3287 0.0186,0.3614 0.0062,0.033 0.0125,-1.2797 0.0188,-1.2467 0.0062,0.0329 0.0124,1.678 0.0187,1.7109 0.0062,0.0328 0.0124,-0.6275 0.0187,-0.5947 0.0062,0.0327 0.0124,-2.6742 0.0186,-2.6414 0.0062,0.0326 0.0124,4.4202 0.0187,4.4528 0.0061,0.0326 0.0123,-7.5103 0.0185,-7.4777 0.0062,0.0325 0.0124,8.6037 0.0186,8.6362 0.0062,0.0324 0.0123,-7.5084 0.0185,-7.476 0.0062,0.0327 0.0125,1.2007 0.0187,1.2334 0.0063,0.033 0.0126,4.3893 0.0189,4.4223 0.0062,0.0328 0.0125,-1.3044 0.0188,-1.2715 0.0062,0.0327 0.0125,0.0823 0.0188,0.1151 0.0062,0.0327 0.0125,-2.6827 0.0187,-2.65 0.0062,0.0326 0.0125,6.6187 0.0187,6.6513 0.0062,0.0325 0.0125,-11.206 0.0187,-11.1735 0.0062,0.0325 0.0124,6.9849 0.0186,7.0173 0.0063,0.0327 0.0126,0.1772 0.0188,0.2099 0.0063,0.0329 0.0127,-4.2644 0.019,-4.2315 0.0063,0.0329 0.0126,4.3891 0.0189,4.422 0.0063,0.0328 0.0126,1.4331 0.0189,1.4659 0.0063,0.0327 0.0126,0.1387 0.0189,0.1714 0.0062,0.0326 0.0125,0.4839 0.0188,0.5165 0.0062,0.0325 0.0125,0.1084 0.0187,0.1409 0.0063,0.0323 0.0125,1.5077 0.0188,1.5401 0.0063,0.033 0.0127,-4.0319 0.0191,-3.999 0.0063,0.0329 0.0127,-1.2911 0.019,-1.2582 0.0063,0.0328 0.0127,0.869 0.019,0.9018 0.0063,0.0327 0.0127,-0.5339 0.019,-0.5012 0.0063,0.0325 0.0126,3.3167 0.0189,3.3493 0.0063,0.0325 0.0126,-0.5021 0.0189,-0.4697 0.0063,0.0324 0.0126,-6.347 0.0189,-6.3146 0.0064,0.0329 0.0128,2.5918 0.0192,2.6247 0.0063,0.0329 0.0127,6.0155 0.0191,6.0484 0.0064,0.0327 0.0128,-7.8723 0.0191,-7.8396 0.0064,0.0326 0.0127,8.513 0.0191,8.5456 0.0063,0.0325 0.0127,-0.0599 0.019,-0.0274 0.0064,0.0324 0.0127,-4.275 0.019,-4.2426 0.0065,0.033 0.0129,0.3889 0.0194,0.4219 0.0064,0.0329 0.0128,-4.7288 0.0192,-4.696 0.0065,0.0328 0.0129,6.0613 0.0193,6.094 0.0064,0.0327 0.0128,-3.9425 0.0192,-3.9099 0.0064,0.0326 0.0128,5.4083 0.0192,5.4409 0.0063,0.0324 0.0127,-3.3668 0.0191,-3.3344 0.0064,0.033 0.0129,-1.2264 0.0194,-1.1935 0.0065,0.0329 0.013,1.6588 0.0194,1.6917 0.0065,0.0327 0.0129,3.661 0.0194,3.6937 0.0064,0.0327 0.0129,2.1792 0.0193,2.2118 0.0064,0.0325 0.0128,0.1771 0.0193,0.2096 0.0064,0.0324 0.0128,-4.5126 0.0192,-4.4803 0.0065,0.0329 0.013,6.3401 0.0195,6.373 0.0065,0.0328 0.013,-3.6921 0.0195,-3.6593 0.0065,0.0326 0.013,-4.351 0.0195,-4.3184 0.0065,0.0326 0.0129,6.1399 0.0194,6.1724 0.0065,0.0325 0.0129,1.6927 0.0194,1.7251 0.0065,0.0329 0.0131,-10.4717 0.0197,-10.4388 0.0065,0.0328 0.013,5.2392 0.0196,5.272 0.0065,0.0327 0.0131,4.9283 0.0196,4.961 0.0065,0.0325 0.013,-5.3326 0.0195,-5.3001 0.0065,0.0324 0.013,8.0406 0.0195,8.073 0.0066,0.0329 0.0132,-9.8987 0.0198,-9.8658 0.0066,0.0328 0.0132,0.9338 0.0198,0.9665 0.0065,0.0327 0.0131,2.6283 0.0197,2.6609 0.0065,0.0325 0.0131,-3.5621 0.0196,-3.5296 0.0066,0.0324 0.0131,5.6163 0.0196,5.6486 0.0067,0.0329 0.0133,-3.1003 0.0199,-3.0674 0.0067,0.0327 0.0133,-1.9436 0.0199,-1.9109 0.0066,0.0325 0.0132,1.6856 0.0198,1.7182 0.0066,0.0324 0.0132,-6.2957 0.0198,-6.2633 0.0067,0.0329 0.0133,5.3843 0.02,5.4171 0.0067,0.0328 0.0134,3.2017 0.02,3.2345 0.0067,0.0326 0.0133,-2.263 0.02,-2.2304 0.0066,0.0325 0.0132,1.6114 0.0199,1.6439 0.0066,0.0323 0.0132,-2.1643 0.0198,-2.132 0.0067,0.0328 0.0135,3.0346 0.0202,3.0673 0.0067,0.0327 0.0134,3.7441 0.0201,3.7767 0.0066,0.0325 0.0133,-2.6299 0.02,-2.5974 0.0068,0.0329 0.0135,-3.798 0.0203,-3.7651 0.0068,0.0327 0.0135,0.0015 0.0203,0.0342 0.0067,0.0326 0.0134,0.5148 0.0202,0.5474 0.0067,0.0325 0.0134,-3.5458 0.0201,-3.5134 0.0067,0.0324 0.0134,6.0491 0.0201,6.0813 0.0068,0.0328 0.0136,-2.308 0.0204,-2.2754 0.0068,0.0326 0.0135,1.3447 0.0203,1.3772 0.0068,0.0324 0.0135,-3.0469 0.0203,-3.0145 0.0068,0.0328 0.0137,-0.5241 0.0205,-0.4913 0.0068,0.0326 0.0137,5.7899 0.0205,5.8226 0.0068,0.0325 0.0136,-0.2899 0.0204,-0.2574 0.0068,0.0323 0.0136,-5.3071 0.0204,-5.2748 0.0068,0.0328 0.0137,2.7697 0.0206,2.8023 0.0069,0.0326 0.0137,-2.1072 0.0206,-2.0747 0.0069,0.033 0.0139,6.3637 0.0208,6.3965 0.0069,0.0328 0.0139,-2.172 0.0208,-2.1393 0.0069,0.0326 0.0138,0.0927 0.0207,0.1253 0.0069,0.0324 0.0138,-1.2497 0.0206,-1.2173 0.007,0.0327 0.014,0.4854 0.021,0.5181 0.0069,0.0326 0.0139,-0.0382 0.0208,-0.0056 0.0069,0.0324 0.0139,1.7512 0.0208,1.7836 0.007,0.0328 0.014,1.7827 0.021,1.8154 0.007,0.0326 0.014,-8.1657 0.021,-8.1331 0.007,0.0324 0.0139,1.8421 0.0209,1.8745 0.007,0.0322 0.0139,1.1527 0.0208,1.1849 0.0071,0.0326 0.0141,2.086 0.0211,2.1186 0.007,0.0324 0.014,2.3793 0.0211,2.4117 0.007,0.0327 0.0141,-3.3897 0.0212,-3.357 0.0071,0.0325 0.0142,0.7453 0.0212,0.7777 0.0071,0.0324 0.0141,-1.7697 0.0212,-1.7374 0.0071,0.0327 0.0142,0.9843 0.0213,1.0169 0.0071,0.0325 0.0142,2.9593 0.0213,2.9917 0.0072,0.0328 0.0144,-2.5194 0.0216,-2.4867 0.0071,0.0326 0.0143,3.1409 0.0214,3.1735 0.0072,0.0324 0.0143,-1.9228 0.0214,-1.8904 0.0072,0.0326 0.0144,-6.8721 0.0217,-6.8395 0.0071,0.0325 0.0143,6.4956 0.0215,6.528 0.0073,0.0328 0.0145,-2.5075 0.0218,-2.4748 0.0072,0.0325 0.0145,0.7312 0.0217,0.7637 0.0072,0.0324 0.0144,3.5254 0.0216,3.5577 0.0073,0.0326 0.0146,-0.4564 0.0219,-0.4239 0.0072,0.0324 0.0145,-0.094 0.0217,-0.0616 0.0074,0.0326 0.0147,-1.5217 0.022,-1.4891 0.0073,0.0325 0.0146,-0.4539 0.0219,-0.4215 0.0073,0.0322 0.0146,2.8874 0.0219,2.9196 0.0073,0.0325 0.0147,3.0705 0.022,3.103 0.0074,0.0327 0.0149,-7.9821 0.0223,-7.9495 0.0074,0.0325 0.0148,-3.7144 0.0221,-3.682 0.0074,0.0323 0.0148,6.0803 0.0221,6.1125 0.0075,0.0325 0.0149,6.7798 0.0223,6.8122 0.0075,0.0327 0.015,-6.181 0.0225,-6.1483 0.0075,0.0324 0.015,6.6202 0.0224,6.6526 0.0075,0.0323 0.0149,-4.1062 0.0224,-4.074 0.0075,0.0325 0.015,-1.6234 0.0225,-1.591 0.0076,0.0326 0.0151,0.9144 0.0227,0.947 0.0075,0.0325 0.0151,0.3261 0.0226,0.3585 0.0075,0.0322 0.015,0.6824 0.0226,0.7145 0.0076,0.0328 0.0153,-5.751 0.023,-5.7183 0.0076,0.0325 0.0152,1.6582 0.0229,1.6907 0.0076,0.0323 0.0152,3.1317 0.0228,3.1639 0.0077,0.0324 0.0153,1.859 0.023,1.8914 0.0077,0.0326 0.0154,-2.4642 0.0232,-2.4317 0.0077,0.0324 0.0154,-2.2415 0.023,-2.2092 0.0077,0.0321 0.0154,4.871 0.023,4.903 0.0078,0.0327 0.0156,-1.1915 0.0234,-1.1589 0.0078,0.0324 0.0156,-4.3086 0.0234,-4.2763 0.0077,0.0321 0.0154,7.2123 0.0232,7.2444 0.0079,0.0327 0.0158,-0.9204 0.0236,-0.8879 0.0079,0.0324 0.0157,-1.6979 0.0236,-1.6656 0.0078,0.0321 0.0156,-0.7627 0.0234,-0.7307 0.008,0.0326 0.0159,4.9212 0.0239,4.9537 0.0079,0.0324 0.0158,-3.961 0.0237,-3.9288 0.0079,0.0321 0.0158,0.8679 0.0237,0.8999 0.008,0.0325 0.016,2.9434 0.024,2.9758 0.008,0.0323 0.016,-3.703 0.024,-3.6709 0.0081,0.0327 0.0162,0.9107 0.0243,0.9433 0.0081,0.0324 0.0162,-1.5753 0.0243,-1.543 0.008,0.0321 0.016,-1.1456 0.0241,-1.1136 0.0081,0.0325 0.0163,-0.5217 0.0245,-0.4893 0.0081,0.0322 0.0162,-4.3188 0.0243,-4.2867 0.0083,0.0326 0.0165,7.8135 0.0248,7.846 0.0082,0.0323 0.0164,1.3607 0.0246,1.3929 0.0082,0.0321 0.0164,-0.4014 0.0245,-0.3695 0.0083,0.0324 0.0166,-1.2984 0.0249,-1.2661 0.0082,0.032 0.0165,-3.4789 0.0247,-3.4469 0.0084,0.0324 0.0168,3.3961 0.0251,3.4284 0.0084,0.0321 0.0167,-2.5618 0.025,-2.5298 0.0084,0.0324 0.0169,-0.9505 0.0253,-0.9182 0.0084,0.0321 0.0168,6.6114 0.0252,6.6433 0.0085,0.0324 0.017,-6.8927 0.0255,-6.8605 0.0085,0.0321 0.0169,0.7171 0.0254,0.749 0.0086,0.0324 0.0171,6.4338 0.0257,6.466 0.0085,0.032 0.0171,-3.0109 0.0256,-2.979 0.0086,0.0322 0.0172,-1.8626 0.0259,-1.8305 0.0085,0.032 0.0171,-2.9178 0.0257,-2.886 0.0087,0.0322 0.0174,4.9744 0.026,5.0065 0.0088,0.0324 0.0176,-3.0651 0.0264,-3.0329 0.0087,0.032 0.0174,-0.3023 0.0262,-0.2704 0.0088,0.0322 0.0176,-4.8785 0.0265,-4.8465 0.0089,0.0325 0.0178,5.5397 0.0267,5.572 0.0089,0.032 0.0178,-0.0647 0.0266,-0.0328 0.009,0.0322 0.018,3.6556 0.0269,3.6876 0.0091,0.0324 0.0181,-1.6862 0.0272,-1.654 0.009,0.032 0.0179,0.9023 0.0269,0.9341 0.0091,0.0321 0.0182,2.4393 0.0273,2.4712 0.0091,0.0323 0.0183,-3.079 0.0274,-3.0469 0.0091,0.0318 0.0182,-0.8789 0.0273,-0.8472 0.0092,0.0319 0.0184,1.4467 0.0276,1.4784 0.0092,0.0321 0.0185,2.1107 0.0277,2.1426 0.0093,0.0321 0.0187,-0.0505 0.028,-0.0186 0.0094,0.0322 0.0188,-3.4874 0.0282,-3.4554 0.0093,0.0317 0.0187,2.3926 0.028,2.4242 0.0096,0.0322 0.0191,0.1886 0.0286,0.2206 0.0095,0.0318 0.019,3.4266 0.0284,3.4583 0.0097,0.0322 0.0194,-4.9573 0.029,-4.9252 0.0096,0.0318 0.0192,0.9039 0.0288,0.9355 0.0098,0.0322 0.0196,1.1191 0.0294,1.1511 0.0097,0.0318 0.0194,2.8541 0.0291,2.8857 0.0099,0.0321 0.0198,-3.4962 0.0297,-3.4643 0.0098,0.0317 0.0196,-1.1139 0.0294,-1.0824 0.01,0.032 0.0199,0.5673 0.0299,0.5991 0.0101,0.0319 0.0201,1.3515 0.0301,1.3832 0.0101,0.0318 0.0201,2.694 0.0302,2.7256 0.0102,0.0321 0.0205,-5.5864 0.0307,-5.5546 0.0101,0.0316 0.0203,-0.4648 0.0304,-0.4335 0.0103,0.0318 0.0206,5.4937 0.0309,5.5253 0.0104,0.032 0.0209,0.8588 0.0313,0.8905 0.0103,0.0315 0.0207,-1.5552 0.031,-1.524 0.0105,0.0316 0.021,-6.1382 0.0315,-6.1069 0.0106,0.0318 0.0212,3.9661 0.0318,3.9976 0.0108,0.0319 0.0215,3.5639 0.0322,3.5955 0.0109,0.032 0.0218,-0.5457 0.0327,-0.514 0.0107,0.0313 0.0215,0.9716 0.0322,1.0027 0.0109,0.0313 0.0217,-1.1346 0.0326,-1.1035 0.011,0.0314 0.022,-2.2624 0.0329,-2.2313 0.0111,0.0314 0.0222,-1.0122 0.0333,-0.9811 0.0111,0.0314 0.0223,2.5996 0.0335,2.6307 0.0113,0.0312 0.0225,1.0501 0.0338,1.0811 0.0113,0.0312 0.0227,-2.8644 0.034,-2.8335 0.0117,0.0316 0.0233,4.863 0.0349,4.8943 0.0117,0.0315 0.0234,-6.7104 0.0351,-6.6793 0.0118,0.0314 0.0235,10.9889 0.0353,11.0199 0.0118,0.0311 0.0236,-6.2725 0.0354,-6.2417 0.0121,0.0314 0.0242,-6.1293 0.0362,-6.0983 0.0121,0.0311 0.0242,4.3341 0.0363,4.3648 0.0123,0.0313 0.0246,0.984 0.037,1.0149 0.0123,0.031 0.0246,-0.7825 0.0369,-0.7519 0.0126,0.031 0.0251,-1.3752 0.0376,-1.3446 0.0128,0.0311 0.0255,2.6412 0.0382,2.6718 0.0129,0.0311 0.0258,-2.6347 0.0387,-2.6041 0.013,0.031 0.0261,4.0959 0.0391,4.1264 0.0132,0.0309 0.0264,-1.6732 0.0396,-1.6428 0.0133,0.0307 0.0266,-2.8213 0.0399,-2.7911 0.0136,0.0309 0.0272,0.2723 0.0408,0.3026 0.0136,0.0306 0.0273,0.2448 0.041,0.2749 0.0139,0.0305 0.0279,0.6657 0.0418,0.6958 0.0141,0.0305 0.0283,-4.6327 0.0424,-4.6027 0.0143,0.0303 0.0287,5.0113 0.043,5.0411 0.0145,0.0301 0.029,3.1507 0.0435,3.1802 0.0148,0.0302 0.0296,0.1638 0.0444,0.1933 0.015,0.0301 0.0301,1.092 0.0452,1.1214 0.0152,0.0299 0.0305,-0.2582 0.0458,-0.229 0.0155,0.0295 0.0309,5.7176 0.0464,5.7465 0.0159,0.0297 0.0318,-9.7974 0.0477,-9.7685 0.0163,0.0296 0.0326,1.9856 0.0489,2.0144 0.0166,0.0295 0.0332,5.3816 0.0498,5.4102 0.0169,0.029 0.0337,-7.4881 0.0506,-7.4599 0.0173,0.029 0.0346,4.051 0.0519,4.0791 0.0177,0.0287 0.0354,1.1415 0.0531,1.1693 0.018,0.0281 0.0359,-1.3594 0.0539,-1.3322 0.0187,0.0282 0.0373,-4.3602 0.0559,-4.333 0.0191,0.0279 0.0383,1.6698 0.0574,1.6966 0.0196,0.0273 0.0391,1.8749 0.0586,1.901 0.0202,0.027 0.0404,11.0162 0.0606,11.042 0.0209,0.0268 0.0419,-7.5208 0.0629,-7.4954 0.0216,0.0261 0.0432,-4.4975 0.0648,-4.4729 0.0222,0.0254 0.0444,-1.918 0.0667,-1.8942 0.0232,0.0249 0.0464,-2.551 0.0696,-2.5278 0.0243,0.0242 0.0486,6.2336 0.0729,6.2559 0.0249,0.0228 0.0498,-1.0654 0.0747,-1.0446 0.0263,0.022 0.0526,2.5151 0.0789,2.5348 0.0272,0.0203 0.0544,-3.8435 0.0816,-3.8256 0.0285,0.0187 0.057,-1.0101 0.0855,-0.9942 0.0297,0.0167 0.0594,-1.7713 0.0892,-1.7577 0.0307,0.0141 0.0614,3.8694 0.0921,3.8801 0.0322,0.0113 0.0644,-4.0539 0.0967,-4.0463 0.033,0.0079 0.0659,0.2607 0.0989,0.2647 0.033,0.0039 0.066,1.69 0.099,1.69 0.033,0 0.066,0.9671 0.0992,0.9634 0.033,-0.0037 0.0661,2.0598 0.0993,2.0526 0.0318,-0.0069 0.0638,1.4739 0.0958,1.4638 0.0313,-0.0099 0.0627,-5.8583 0.0942,-5.8712 0.0302,-0.0123 0.0604,7.9528 0.0908,7.9378 0.029,-0.0143 0.0582,-4.1065 0.0874,-4.1233 0.0285,-0.0163 0.0572,-2.8675 0.0859,-2.8861 0.0274,-0.0178 0.0549,4.8198 0.0826,4.8 0.0265,-0.0189 0.0532,-0.2887 0.0801,-0.3095 0.0257,-0.02 0.0516,-0.626 0.0776,-0.6477 0.0253,-0.0211 0.0507,-0.9035 0.0762,-0.9261 0.0244,-0.0218 0.049,-3.3206 0.0737,-3.3437 0.0239,-0.0225 0.048,3.6994 0.0722,3.6756 0.0234,-0.023 0.047,-4.3375 0.0706,-4.3618 0.0229,-0.0235 0.046,3.8581 0.0691,3.8334 0.0224,-0.0239 0.0449,1.4789 0.0676,1.4539 0.0222,-0.0244 0.0445,-7.7916 0.0669,-7.8171 0.0217,-0.0246 0.0435,4.2976 0.0653,4.272 0.0215,-0.0251 0.0431,3.3987 0.0648,3.3727 0.0212,-0.0255 0.0426,-2.9863 0.0641,-3.0127 0.0207,-0.0254 0.0415,-3.4779 0.0625,-3.5041 0.0205,-0.0258 0.0411,-0.2169 0.0618,-0.2434 0.0203,-0.0259 0.0407,1.0608 0.0611,1.0342 0.0201,-0.0262 0.0403,4.7641 0.0605,4.7373 0.0199,-0.0263 0.0398,-3.0262 0.0598,-3.0531 0.0197,-0.0264 0.0394,-0.2344 0.0592,-0.2614 0.0193,-0.0264 0.0388,4.5575 0.0584,4.5305 0.0195,-0.0269 0.039,-0.7131 0.0587,-0.7406 0.0193,-0.0269 0.0386,-3.3226 0.058,-3.3501 0.0191,-0.0269 0.0382,-1.1179 0.0573,-1.1453 0.0192,-0.0273 0.0384,5.7472 0.0577,5.7193 0.0188,-0.0272 0.0378,-6.8697 0.0568,-6.8975 0.0187,-0.0271 0.0374,0.7098 0.0562,0.6822 0.0187,-0.0275 0.0375,2.4647 0.0564,2.4367 0.0185,-0.0273 0.037,-2.1273 0.0557,-2.1551 0.0185,-0.0277 0.0372,2.5092 0.0559,2.4811 0.0183,-0.0275 0.0367,-1.3294 0.0552,-1.3573 0.0184,-0.0278 0.0369,-4.4046 0.0554,-4.4328 0.0182,-0.0276 0.0364,2.8854 0.0547,2.8575 0.0182,-0.0279 0.0366,-1.6249 0.0549,-1.6531 0.018,-0.0276 0.036,3.577 0.0542,3.5491 0.018,-0.0279 0.0362,-1.676 0.0544,-1.7042 0.0179,-0.0279 0.036,3.0201 0.0541,2.9919 0.0179,-0.0278 0.0358,-3.1174 0.0538,-3.1455 0.018,-0.028 0.036,-3.5043 0.0541,-3.5326 0.0177,-0.0277 0.0354,-0.0348 0.0533,-0.0628 0.0177,-0.0279 0.0356,6.9662 0.0535,6.938 0.0178,-0.0282 0.0357,1.4934 0.0537,1.465 0.0176,-0.0278 0.0352,-6.2821 0.0529,-6.3101 0.0177,-0.028 0.0354,1.9731 0.0532,1.9449 0.0177,-0.0282 0.0355,0.0808 0.0534,0.0524 0.0178,-0.0284 0.0357,6.3091 0.0537,6.2805 0.0175,-0.0279 0.035,-6.2806 0.0527,-6.3088 0.0176,-0.0281 0.0353,0.9661 0.053,0.9377 0.0177,-0.0282 0.0354,1.1831 0.0533,1.1545 0.0175,-0.0281 0.0352,-4.7844 0.0529,-4.8127 0.0174,-0.028 0.0349,3.0236 0.0525,2.9954 0.0176,-0.0282 0.0352,1.6473 0.0528,1.6189 0.0176,-0.0283 0.0353,-2.6016 0.0531,-2.6301 0.0177,-0.0285 0.0354,-0.3165 0.0533,-0.3452 0.0174,-0.0279 0.0348,4.0984 0.0523,4.0703 0.0174,-0.0281 0.035,-0.3878 0.0525,-0.416 0.0176,-0.0283 0.0352,-3.4519 0.0528,-3.4803 0.0176,-0.0283 0.0353,-1.0036 0.0531,-1.0321 0.0177,-0.0285 0.0354,3.9343 0.0532,3.9056 0.0176,-0.0283 0.0352,-3.2032 0.0529,-3.2317 0.0175,-0.028 0.0349,3.1494 0.0525,3.1212 0.0175,-0.0282 0.0351,3.5598 0.0527,3.5314 0.0176,-0.0283 0.0352,-7.9001 0.053,-7.9285 0.0176,-0.0284 0.0353,4.8873 0.0531,4.8587 0.0176,-0.0281 0.0351,-9.0513 0.0528,-9.0796 0.0176,-0.0283 0.0353,0.0065 0.053,-0.022 0.0174,-0.028 0.035,8.2344 0.0525,8.2062 0.0176,-0.0281 0.0352,-3.9376 0.0528,-3.9659 0.0176,-0.0282 0.0353,2.6384 0.053,2.61 0.0177,-0.0283 0.0354,-3.4543 0.0532,-3.4827 0.0178,-0.0284 0.0356,-1.1865 0.0535,-1.2151 0.0176,-0.0281 0.0353,3.3141 0.053,3.2858 0.0177,-0.0282 0.0354,-5.883 0.0532,-5.9114 0.0176,-0.0279 0.0351,4.4976 0.0528,4.4695 0.0176,-0.0281 0.0352,4.4127 0.053,4.3846 0.0176,-0.0281 0.0354,-2.128 0.0532,-2.1562 0.0177,-0.0282 0.0355,-3.4535 0.0534,-3.4818 0.0178,-0.0282 0.0356,3.5098 0.0536,3.4815 0.0179,-0.0284 0.0358,-3.0972 0.0538,-3.1256 0.0177,-0.028 0.0355,0.8924 0.0534,0.8642 0.0178,-0.0281 0.0356,1.5234 0.0535,1.4952 0.0176,-0.0278 0.0353,1.0226 0.0531,0.9946 0.0177,-0.0278 0.0354,0.2625 0.0532,0.2345 0.0178,-0.0279 0.0356,-0.2967 0.0535,-0.3248 0.0179,-0.0279 0.0357,-1.0883 0.0537,-1.1164 0.0179,-0.028 0.0359,-2.9255 0.0539,-2.9536 0.0179,-0.0281 0.036,1.531 0.054,1.5028 0.0181,-0.0281 0.0362,-0.0064 0.0543,-0.0347 0.0181,-0.0282 0.0363,-3.8776 0.0545,-3.9059 0.0179,-0.0279 0.0359,3.8899 0.054,3.8619 0.018,-0.028 0.036,1.513 0.0541,1.4849 0.0181,-0.0279 0.0362,-0.1516 0.0544,-0.1797 0.0179,-0.0277 0.0358,-1.4314 0.0538,-1.4591 0.018,-0.0277 0.036,-2.789 0.054,-2.8168 0.018,-0.0277 0.0361,2.5417 0.0542,2.5139 0.0181,-0.0278 0.0362,3.6794 0.0544,3.6515 0.0182,-0.0278 0.0364,-2.3646 0.0546,-2.3925 0.0182,-0.0279 0.0365,-5.84 0.0548,-5.8679 0.0182,-0.0279 0.0366,1.69 0.0549,1.662 0.0184,-0.0279 0.0368,2.4212 0.0552,2.3932 0.0184,-0.028 0.0368,-2.5445 0.0553,-2.5725 0.0185,-0.028 0.037,-1.3592 0.0556,-1.3873 0.0185,-0.028 0.0371,1.1089 0.0557,1.0808 0.0183,-0.0276 0.0367,1.5737 0.0551,1.5459 0.0184,-0.0277 0.0369,1.8858 0.0554,1.858 0.0184,-0.0277 0.0369,3.0145 0.0555,2.9867 0.0185,-0.0278 0.0371,-2.5577 0.0557,-2.5855 0.0183,-0.0274 0.0367,-3.4481 0.0551,-3.4756 0.0184,-0.0274 0.0368,4.0295 0.0553,4.002 0.0184,-0.0274 0.0369,-9.9336 0.0554,-9.9611 0.0185,-0.0275 0.0371,5.8183 0.0557,5.7908 0.0185,-0.0275 0.0371,-0.4208 0.0558,-0.4483 0.0186,-0.0275 0.0373,4.7067 0.056,4.6791 0.0186,-0.0275 0.0374,-5.0696 0.0561,-5.0971 0.0188,-0.0276 0.0376,6.9757 0.0564,6.9481 0.0188,-0.0276 0.0376,-3.7732 0.0565,-3.8009 0.0188,-0.0275 0.0377,2.7138 0.0567,2.6862 0.0189,-0.0276 0.0378,-2.9065 0.0568,-2.9341 0.019,-0.0276 0.038,-0.5393 0.0571,-0.567 0.019,-0.0276 0.0381,-1.2794 0.0572,-1.3071 0.019,-0.0276 0.0382,-5.0822 0.0574,-5.1099 0.0191,-0.0276 0.0383,6.8282 0.0575,6.8005 0.0189,-0.0272 0.0379,-0.4703 0.0569,-0.4976 0.019,-0.0272 0.038,-1.1562 0.0571,-1.1835 0.019,-0.0273 0.0381,-0.2751 0.0572,-0.3024 0.0191,-0.0273 0.0383,-1.7333 0.0575,-1.7607 0.0191,-0.0272 0.0383,-0.1593 0.0575,-0.1867 0.0192,-0.0272 0.0385,8.1237 0.0578,8.0964 0.0192,-0.0273 0.0385,-6.5594 0.0579,-6.5867 0.019,-0.0269 0.0381,-1.0464 0.0572,-1.0734 0.0191,-0.0269 0.0382,2.8572 0.0574,2.8302 0.0192,-0.0269 0.0384,-0.979 0.0576,-1.006 0.0192,-0.0269 0.0384,-1.597 0.0577,-1.6239 0.0193,-0.0269 0.0386,2.7887 0.0579,2.7618 0.0193,-0.0269 0.0386,-0.1396 0.058,-0.1665 0.0194,-0.0269 0.0388,-0.5543 0.0582,-0.5813 0.0194,-0.0269 0.0389,-1.2035 0.0584,-1.2305 0.0194,-0.0269 0.0389,-2.9652 0.0585,-2.9921 0.0195,-0.0269 0.039,4.532 0.0586,4.505 0.0196,-0.0269 0.0392,-1.1866 0.0588,-1.2135 0.0196,-0.0269 0.0393,-1.645 0.059,-1.6719 0.0196,-0.0269 0.0393,-5.1167 0.0591,-5.1436 0.0197,-0.0269 0.0395,4.8375 0.0593,4.8106 0.0197,-0.0269 0.0395,-2.6393 0.0594,-2.6662 0.0198,-0.0268 0.0397,-4.1769 0.0596,-4.2038 0.0198,-0.0269 0.0397,8.4461 0.0597,8.4192 0.0199,-0.0269 0.0398,0.8798 0.0599,0.8529 0.0199,-0.0269 0.0399,0.1438 0.06,0.1169 0.02,-0.0268 0.04,-3.2459 0.0601,-3.2728 0.0201,-0.0268 0.0402,-2.6708 0.0604,-2.6977 0.0201,-0.0268 0.0402,4.0797 0.0604,4.0528 0.0202,-0.0267 0.0404,4.7394 0.0606,4.7125 0.0203,-0.0267 0.0405,-7.2438 0.0608,-7.2707 0.0203,-0.0267 0.0406,-4.244 0.0609,-4.2708 0.0203,-0.0267 0.0407,9.136 0.0611,9.1092 0.0203,-0.0267 0.0407,-3.3254 0.0612,-3.3521 0.0204,-0.0268 0.0408,-2.9528 0.0613,-2.9795 0.0202,-0.0264 0.0404,1.8464 0.0606,1.82 0.0202,-0.0263 0.0405,4.9114 0.0608,4.8851 0.0202,-0.0263 0.0405,-5.6419 0.0609,-5.6682 0.0203,-0.0263 0.0406,-4.6974 0.061,-4.7237 0.0203,-0.0263 0.0407,7.5026 0.0612,7.4763 0.0203,-0.0263 0.0408,-4.7757 0.0613,-4.802 0.0204,-0.0262 0.0409,0.2048 0.0614,0.1785 0.0205,-0.0262 0.041,-8.1651 0.0616,-8.1913 0.0205,-0.0262 0.0411,13.1279 0.0617,13.1017 0.0206,-0.0262 0.0412,-2.3071 0.0618,-2.3333 0.0206,-0.0261 0.0413,2.2999 0.062,2.2738 0.0207,-0.0261 0.0414,-4.0675 0.0621,-4.0936 0.0207,-0.0261 0.0415,5.8219 0.0623,5.7957 0.0207,-0.026 0.0415,-7.9184 0.0624,-7.9445 0.0207,-0.0261 0.0416,4.1632 0.0625,4.1371 0.0208,-0.026 0.0417,-4.3041 0.0626,-4.3302 0.0209,-0.026 0.0418,-0.1653 0.0628,-0.1914 0.0209,-0.0259 0.0419,2.1861 0.0629,2.16 0.021,-0.0259 0.042,2.5155 0.063,2.4895 0.021,-0.0259 0.0421,4.7497 0.0632,4.7238 0.021,-0.0259 0.0421,-3.6361 0.0633,-3.662 0.0211,-0.0259 0.0422,0.8654 0.0634,0.8395 0.0211,-0.0259 0.0423,0.4518 0.0636,0.4259 0.0211,-0.0259 0.0424,-2.4038 0.0636,-2.4297 0.0212,-0.0258 0.0425,1.1941 0.0638,1.1683 0.0213,-0.0258 0.0426,-0.5374 0.064,-0.5632 0.0213,-0.0258 0.0426,-3.0206 0.064,-3.0464 0.0214,-0.0258 0.0427,-3.1522 0.0642,-3.1779 0.0214,-0.0257 0.0428,-1.658 0.0643,-1.6837 0.0214,-0.0256 0.0429,8.4714 0.0644,8.4457 0.0212,-0.0253 0.0424,-6.2001 0.0636,-6.2254 0.0212,-0.0252 0.0425,3.9633 0.0637,3.9381 0.0213,-0.0252 0.0426,-3.537 0.0639,-3.5622 0.0213,-0.0252 0.0426,1.3368 0.0639,1.3116 0.0214,-0.0251 0.0427,-0.7126 0.0641,-0.7378 0.0214,-0.0251 0.0428,-0.5107 0.0642,-0.5359 0.0214,-0.0251 0.0428,2.5658 0.0643,2.5407 0.0215,-0.025 0.0429,1.3999 0.0645,1.3748 0.0214,-0.025 0.0429,6.9756 0.0645,6.9506 0.0215,-0.025 0.043,-5.3226 0.0646,-5.3477 0.0216,-0.0249 0.0432,1.2051 0.0648,1.1801 0.0216,-0.0249 0.0432,-4.2179 0.0649,-4.2429 0.0216,-0.0249 0.0433,-0.1062 0.065,-0.1311 0.0216,-0.0249 0.0433,-0.3747 0.0651,-0.3995 0.0217,-0.0249 0.0434,2.2525 0.0652,2.2276 0.0217,-0.0248 0.0435,2.3028 0.0653,2.278 0.0218,-0.0248 0.0436,5.9816 0.0654,5.9568 0.0218,-0.0247 0.0437,-18.8363 0.0656,-18.8611 0.0218,-0.0247 0.0437,12.4388 0.0656,12.4141 0.0219,-0.0247 0.0438,3.384 0.0658,3.3594 0.0219,-0.0247 0.0438,-12.0868 0.0658,-12.1115 0.022,-0.0246 0.044,4.5781 0.066,4.5535 0.022,-0.0246 0.044,1.5719 0.0661,1.5473 0.0223,-0.0248 0.0447,-1.0854 0.0671,-1.1104 0.0224,-0.0248 0.0448,1.6681 0.0673,1.6432 0.0224,-0.0248 0.0448,-3.2932 0.0673,-3.318 0.0225,-0.0248 0.045,2.4687 0.0675,2.4439 0.0225,-0.0248 0.045,0.6723 0.0676,0.6475 0.0225,-0.0247 0.0451,-8.2634 0.0677,-8.2881 0.0225,-0.0247 0.0451,9.2161 0.0678,9.1914 0.0225,-0.0246 0.0452,-2.7537 0.0678,-2.7784 0.0227,-0.0246 0.0453,-0.3751 0.068,-0.3997 0.0227,-0.0245 0.0454,-3.8526 0.0681,-3.8772 0.0227,-0.0245 0.0455,4.403 0.0682,4.3785 0.0227,-0.0245 0.0455,-0.4013 0.0683,-0.4258 0.0228,-0.0244 0.0456,-4.6755 0.0684,-4.6999 0.0228,-0.0244 0.0456,3.6409 0.0685,3.6165 0.0228,-0.0244 0.0457,-3.958 0.0686,-3.9823 0.0229,-0.0244 0.0458,2.6142 0.0687,2.5899 0.0229,-0.0243 0.0458,0.4057 0.0688,0.3814 0.0229,-0.0242 0.0459,-2.0112 0.0689,-2.0355 0.0229,-0.0242 0.0459,1.4395 0.069,1.4153 0.0229,-0.0241 0.046,1.6932 0.069,1.669 0.0231,-0.0241 0.0461,-0.6008 0.0692,-0.6249 0.0231,-0.0241 0.0461,5.8326 0.0693,5.8085 0.0231,-0.024 0.0462,-2.4589 0.0693,-2.483 0.0231,-0.024 0.0463,-3.4578 0.0695,-3.4818 0.0231,-0.0239 0.0463,2.8106 0.0695,2.7867 0.0232,-0.0239 0.0464,-3.6991 0.0697,-3.723 0.0232,-0.0239 0.0464,3.344 0.0697,3.3201 0.0232,-0.0238 0.0465,-1.7348 0.0698,-1.7586 0.0233,-0.0238 0.0466,-4.2355 0.0699,-4.2593 0.0233,-0.0237 0.0467,-2.5707 0.07,-2.5945 0.0234,-0.0237 0.0467,5.1701 0.0701,5.1464 0.0234,-0.0236 0.0468,2.3509 0.0702,2.3273 0.0234,-0.0236 0.0468,-7.1709 0.0702,-7.1946 0.0235,-0.0235 0.0469,5.7661 0.0704,5.7425 0.0234,-0.0235 0.0469,-1.2634 0.0704,-1.2869 0.0235,-0.0235 0.047,2.4794 0.0705,2.456 0.0235,-0.0235 0.0471,3.4774 0.0706,3.454 0.0236,-0.0234 0.0471,1.655 0.0707,1.6316 0.0236,-0.0234 0.0472,-8.1741 0.0708,-8.1974 0.0239,-0.0237 0.0479,-3.3972 0.0719,-3.4209 0.0239,-0.0235 0.0479,4.4892 0.0719,4.4656 0.024,-0.0236 0.048,-0.9985 0.0721,-1.0221 0.024,-0.0235 0.048,0.9478 0.0721,0.9243 0.024,-0.0235 0.0481,-1.1766 0.0722,-1.2001 0.0241,-0.0234 0.0482,6.9252 0.0723,6.9018 0.0241,-0.0234 0.0482,-1.7044 0.0724,-1.7278 0.0241,-0.0233 0.0482,-1.5152 0.0724,-1.5385 0.0242,-0.0233 0.0483,-1.7106 0.0726,-1.7339 0.0241,-0.0232 0.0483,0.1558 0.0726,0.1325 0.0242,-0.0231 0.0484,-7.5146 0.0727,-7.5378 0.0242,-0.0231 0.0484,9.8625 0.0727,9.8394 0.0243,-0.0231 0.0485,-9.4645 0.0729,-9.4875 0.0242,-0.0231 0.0485,10.6137 0.0729,10.5907 0.0243,-0.023 0.0486,-1.9741 0.073,-1.997 0.0243,-0.023 0.0486,-1.3851 0.073,-1.408 0.0244,-0.0229 0.0488,-2.5851 0.0732,-2.608 0.0243,-0.0228 0.0488,2.3353 0.0732,2.3124 0.0244,-0.0228 0.0488,0.1989 0.0733,0.1761 0.0244,-0.0228 0.0488,-0.6123 0.0733,-0.635 0.0245,-0.0227 0.049,-0.6942 0.0735,-0.7169 0.0244,-0.0226 0.0489,-4.6827 0.0735,-4.7053 0.0244,-0.0226 0.049,4.8368 0.0735,4.8142 0.0245,-0.0225 0.0491,0.9269 0.0737,0.9044 0.0245,-0.0225 0.0491,-4.0916 0.0737,-4.1141 0.0245,-0.0224 0.0491,2.6016 0.0737,2.5792 0.0246,-0.0224 0.0492,-5.2296 0.0739,-5.252 0.0246,-0.0223 0.0492,7.4472 0.0739,7.4249 0.0246,-0.0223 0.0493,-3.5792 0.074,-3.6015 0.0246,-0.0222 0.0493,-0.4806 0.074,-0.5028 0.0247,-0.0222 0.0494,3.8258 0.0741,3.8036 0.0247,-0.0222 0.0494,-1.2855 0.0742,-1.3077 0.0247,-0.0221 0.0494,2.4331 0.0742,2.411 0.0247,-0.022 0.0495,-4.7194 0.0743,-4.7414 0.0247,-0.022 0.0495,2.6955 0.0743,2.6735 0.0248,-0.0219 0.0496,-4.3961 0.0745,-4.418 0.0247,-0.0219 0.0496,8.7681 0.0744,8.7462 0.0248,-0.0219 0.0497,-6.2847 0.0746,-6.3066 0.0248,-0.0218 0.0497,-1.0775 0.0746,-1.0993 0.0248,-0.0217 0.0497,0.1335 0.0746,0.1117 0.0249,-0.0217 0.0498,0.4838 0.0747,0.4621 0.0249,-0.0216 0.0498,-7.5367 0.0748,-7.5583 0.0252,-0.0219 0.0505,10.4182 0.0759,10.3963 0.0252,-0.0219 0.0506,-4.2254 0.0759,-4.2473 0.0253,-0.0218 0.0506,3.437 0.076,3.4152 0.0253,-0.0217 0.0507,-3.2353 0.0761,-3.257 0.0253,-0.0217 0.0507,6.0211 0.0761,5.9994 0.0254,-0.0217 0.0507,-5.43 0.0762,-5.4517 0.0253,-0.0216 0.0508,3.2376 0.0762,3.2161 0.0254,-0.0216 0.0508,0.2971 0.0763,0.2755 0.0254,-0.0215 0.0508,0.8497 0.0763,0.8282 0.0254,-0.0215 0.0509,-6.0198 0.0764,-6.0412 0.0254,-0.0214 0.0509,0.6898 0.0764,0.6684 0.0255,-0.0213 0.051,1.463 0.0765,1.4417 0.0255,-0.0213 0.051,1.636 0.0765,1.6147 0.0255,-0.0212 0.0511,1.8734 0.0766,1.8522 0.0259,-0.0215 0.0518,-3.2215 0.0777,-3.243 0.0259,-0.0214 0.0518,2.6858 0.0778,2.6644 0.0259,-0.0213 0.0518,1.5762 0.0778,1.5548 0.0259,-0.0213 0.0519,-6.4318 0.0779,-6.4531 0.0259,-0.0213 0.0519,-1.8546 0.0779,-1.8759 0.0259,-0.0212 0.0519,-2.4367 0.0779,-2.4579 0.026,-0.0211 0.052,4.5337 0.078,4.5126 0.026,-0.0211 0.052,-1.9189 0.0781,-1.94 0.026,-0.0211 0.052,7.5985 0.0781,7.5775 0.026,-0.021 0.052,-5.406 0.0781,-5.427 0.026,-0.0209 0.0521,0.3781 0.0782,0.3572 0.026,-0.0209 0.0521,-1.3641 0.0782,-1.385 0.026,-0.0208 0.0521,0.6644 0.0782,0.6436 0.0261,-0.0208 0.0522,3.2912 0.0784,3.2704 0.026,-0.0207 0.0521,-2.2977 0.0783,-2.3185 0.0261,-0.0206 0.0522,-0.185 0.0784,-0.2056 0.0261,-0.0206 0.0522,-1.4302 0.0784,-1.4508 0.0261,-0.0205 0.0523,1.175 0.0784,1.1545 0.0262,-0.0205 0.0523,-2.7902 0.0785,-2.8107 0.0262,-0.0205 0.0524,1.9637 0.0786,1.9432 0.0261,-0.0203 0.0523,-2.843 0.0785,-2.8634 0.0262,-0.0204 0.0524,4.4838 0.0787,4.4635 0.0261,-0.0203 0.0523,3.1082 0.0786,3.0879 0.0262,-0.0202 0.0524,-3.293 0.0787,-3.3133 0.0262,-0.0201 0.0524,-2.4699 0.0787,-2.4901 0.0262,-0.0201 0.0524,1.0102 0.0787,0.99 0.0262,-0.02 0.0525,-0.6601 0.0788,-0.6801 0.0262,-0.0201 0.0525,-3.8132 0.0788,-3.8332 0.0262,-0.0199 0.0525,9.1901 0.0788,9.1701 0.0267,-0.0201 0.0533,-6.8404 0.08,-6.8606 0.0266,-0.0201 0.0533,1.4801 0.08,1.46 0.0266,-0.02 0.0533,1.4556 0.08,1.4355 0.0267,-0.02 0.0534,-0.155 0.0801,-0.175 0.0266,-0.02 0.0533,1.4743 0.0801,1.4543 0.0266,-0.0199 0.0533,-4.6552 0.0801,-4.6751 0.0266,-0.0199 0.0534,3.1304 0.0801,3.1106 0.0267,-0.0198 0.0534,-0.8556 0.0802,-0.8754 0.0267,-0.0198 0.0534,-2.2267 0.0802,-2.2464 0.027,-0.02 0.0541,-0.7684 0.0813,-0.7884 0.0271,-0.0199 0.0542,5.5585 0.0813,5.5386 0.0271,-0.0198 0.0542,0.6782 0.0814,0.6583 0.0271,-0.0198 0.0542,-4.8908 0.0814,-4.9106 0.0271,-0.0197 0.0542,0.1841 0.0814,0.1644 0.0271,-0.0197 0.0543,4.2408 0.0814,4.2211 0.0272,-0.0196 0.0543,-0.7103 0.0815,-0.7299 0.0271,-0.0196 0.0543,-5.1666 0.0815,-5.1862 0.0271,-0.0195 0.0543,10.7112 0.0815,10.6917 0.0271,-0.0194 0.0543,-7.5877 0.0815,-7.6072 0.0271,-0.0194 0.0543,-0.7501 0.0815,-0.7695 0.0272,-0.0194 0.0544,-0.2018 0.0816,-0.2211 0.0272,-0.0193 0.0544,3.1391 0.0816,3.1199 0.0271,-0.0192 0.0543,-7.4079 0.0816,-7.4272 0.0271,-0.0191 0.0543,8.2595 0.0816,8.2404 0.0272,-0.0191 0.0544,-0.1271 0.0816,-0.1462 0.0272,-0.0191 0.0544,-2.514 0.0817,-2.5331 0.0271,-0.019 0.0544,-3.0551 0.0816,-3.074 0.0272,-0.019 0.0544,-0.7426 0.0817,-0.7615 0.0272,-0.0189 0.0544,-0.8792 0.0817,-0.8981 0.0272,-0.0188 0.0544,0.5278 0.0817,0.509 0.0272,-0.0188 0.0544,0.1644 0.0817,0.1457 0.0272,-0.0187 0.0544,4.388 0.0817,4.3693 0.0272,-0.0187 0.0545,-1.3691 0.0818,-1.3877 0.0275,-0.0189 0.0552,-1.7112 0.0828,-1.73 0.0276,-0.0188 0.0552,3.0972 0.0829,3.0784 0.0276,-0.0188 0.0552,-3.5299 0.0828,-3.5486 0.0276,-0.0187 0.0553,2.4042 0.0829,2.3855 0.0276,-0.0186 0.0552,1.2847 0.0829,1.2661 0.0276,-0.0186 0.0552,-4.9312 0.0829,-4.9498 0.0276,-0.0185 0.0552,3.3382 0.0829,3.3197 0.0276,-0.0185 0.0552,4.7333 0.0829,4.7148 0.028,-0.0186 0.056,-4.291 0.084,-4.3097 0.028,-0.0186 0.056,-6.0032 0.0841,-6.0218 0.0279,-0.0185 0.0559,7.8667 0.084,7.8482 0.028,-0.0184 0.056,3.8226 0.084,3.8041 0.028,-0.0184 0.056,-7.1802 0.0841,-7.1986 0.0279,-0.0183 0.056,-1.41 0.084,-1.4283 0.028,-0.0183 0.056,2.3481 0.084,2.3298 0.028,-0.0182 0.056,3.1034 0.0841,3.0851 0.028,-0.0182 0.056,2.1706 0.084,2.1524 0.028,-0.0181 0.056,2.4806 0.0841,2.4625 0.028,-0.0181 0.056,-9.2346 0.084,-9.2526 0.028,-0.018 0.056,-2.2949 0.0841,-2.3129 0.0279,-0.018 0.056,1.0265 0.084,1.0086 0.028,-0.0179 0.056,2.4133 0.084,2.3954 0.028,-0.0178 0.056,2.9867 0.0841,2.9689 0.0279,-0.0178 0.056,-1.2959 0.084,-1.3137 0.028,-0.0177 0.056,-7.7109 0.084,-7.7286 0.028,-0.0177 0.056,2.6049 0.084,2.5873 0.028,-0.0176 0.056,5.6934 0.0841,5.6758 0.0279,-0.0176 0.0559,0.5402 0.084,0.5226 0.0279,-0.0174 0.0559,-0.3583 0.084,-0.3758 0.0283,-0.0177 0.0567,-0.5591 0.0851,-0.5768 0.0283,-0.0176 0.0567,1.5299 0.0851,1.5123 0.0283,-0.0176 0.0566,-4.619 0.085,-4.6365 0.0284,-0.0175 0.0567,5.3307 0.0851,5.3132 0.0283,-0.0174 0.0567,-1.3243 0.0851,-1.3417 0.0283,-0.0174 0.0566,-4.2199 0.085,-4.2373 0.0287,-0.0175 0.0574,0.6172 0.0862,0.5997 0.0286,-0.0175 0.0574,-2.4701 0.0861,-2.4875 0.0287,-0.0175 0.0574,4.9333 0.0861,4.9159 0.0287,-0.0174 0.0574,1.2316 0.0861,1.2142 0.0287,-0.0173 0.0574,-3.7556 0.0861,-3.7729 0.0287,-0.0173 0.0574,5.4502 0.0861,5.433 0.0287,-0.0172 0.0573,-7.9621 0.0861,-7.9793 0.0286,-0.0171 0.0573,-1.9234 0.086,-1.9405 0.0286,-0.0171 0.0573,-0.3166 0.086,-0.3337 0.0287,-0.017 0.0573,5.625 0.086,5.608 0.0287,-0.017 0.0573,-1.607 0.086,-1.624 0.0287,-0.0169 0.0573,-2.9438 0.086,-2.9607 0.0286,-0.0168 0.0573,1.5401 0.086,1.5233 0.0286,-0.0168 0.0572,-3.0375 0.0859,-3.0542 0.0286,-0.0168 0.0572,3.718 0.0859,3.7013 0.0286,-0.0167 0.0572,-0.4117 0.0859,-0.4283 0.0286,-0.0166 0.0572,-0.2391 0.0859,-0.2557 0.0286,-0.0166 0.0572,0.1637 0.0858,0.1472 0.0286,-0.0165 0.0572,12.5312 0.0859,12.5147 0.0289,-0.0166 0.0579,-6.9001 0.0869,-6.9167 0.0289,-0.0166 0.0579,5.6517 0.0868,5.6351 0.029,-0.0165 0.0579,-9.045 0.0869,-9.0615 0.0289,-0.0165 0.0579,4.0191 0.0868,4.0027 0.0289,-0.0164 0.0579,-5.5677 0.0868,-5.5841 0.0293,-0.0165 0.0586,2.7918 0.0879,2.7752 0.0293,-0.0165 0.0585,-1.5901 0.0878,-1.6066 0.0293,-0.0164 0.0586,-4.7997 0.0879,-4.8161 0.0292,-0.0164 0.0585,6.5972 0.0878,6.5808 0.0292,-0.0163 0.0584,-8.0531 0.0877,-8.0694 0.0292,-0.0163 0.0585,2.3201 0.0877,2.3038 0.0292,-0.0162 0.0585,-4.0925 0.0877,-4.1087 0.0292,-0.0162 0.0584,8.2203 0.0877,8.2042 0.0292,-0.0161 0.0584,0.3922 0.0876,0.3761 0.0292,-0.0161 0.0584,-3.2842 0.0876,-3.3002 0.0292,-0.016 0.0584,2.4169 0.0876,2.4009 0.0291,-0.0159 0.0583,-1.9657 0.0875,-1.9816 0.0292,-0.0159 0.0583,5.7762 0.0875,5.7604 0.0291,-0.0158 0.0583,-8.7798 0.0875,-8.7956 0.0291,-0.0157 0.0582,6.1892 0.0874,6.1735 0.0291,-0.0157 0.0582,1.5129 0.0874,1.4972 0.0291,-0.0156 0.0582,-4.9297 0.0873,-4.9453 0.0291,-0.0156 0.0582,3.1335 0.0874,3.118 0.0294,-0.0158 0.0588,-0.9971 0.0883,-1.0128 0.0294,-0.0156 0.0589,-0.4062 0.0884,-0.4219 0.0294,-0.0156 0.0588,-6.0322 0.0882,-6.0478 0.0294,-0.0155 0.0588,6.5471 0.0883,6.5315 0.0297,-0.0157 0.0595,1.4441 0.0893,1.4284 0.0297,-0.0156 0.0594,-1.7166 0.0892,-1.7322 0.0297,-0.0155 0.0595,-1.5494 0.0892,-1.5649 0.0297,-0.0155 0.0594,-1.1403 0.0892,-1.1558 0.0297,-0.0155 0.0594,-0.7607 0.0891,-0.7762 0.0297,-0.0153 0.0594,2.6374 0.0891,2.622 0.0296,-0.0153 0.0593,0.1221 0.089,0.1068 0.0296,-0.0153 0.0593,-1.252 0.089,-1.2673 0.0296,-0.0152 0.0593,0.6323 0.0889,0.6171 0.0296,-0.0152 0.0593,-1.428 0.0889,-1.4432 0.0296,-0.0151 0.0592,3.0824 0.0888,3.0673 0.0296,-0.0151 0.0592,1.2611 0.0888,1.2461 0.0296,-0.015 0.0592,3.8259 0.0888,3.8109 0.0295,-0.0149 0.0591,-7.7923 0.0887,-7.8072 0.0295,-0.0149 0.059,0.2506 0.0886,0.2358 0.0295,-0.0148 0.059,-2.6938 0.0886,-2.7085 0.0298,-0.015 0.0597,2.1695 0.0896,2.1546 0.0298,-0.0149 0.0597,-1.5048 0.0896,-1.5197 0.0298,-0.0148 0.0596,1.3966 0.0895,1.3818 0.0298,-0.0148 0.0596,4.641 0.0894,4.6262 0.0302,-0.0149 0.0603,-5.5195 0.0905,-5.5344 0.0301,-0.0148 0.0603,-0.631 0.0904,-0.6459 0.0301,-0.0147 0.0602,4.2823 0.0904,4.2676 0.0301,-0.0147 0.0602,0.141 0.0903,0.1263 0.0301,-0.0147 0.0601,-5.0335 0.0902,-5.0482 0.0301,-0.0146 0.0601,-1.2166 0.0902,-1.2312 0.03,-0.0146 0.0601,-0.1956 0.0902,-0.2101 0.03,-0.0145 0.06,4.3329 0.09,4.3184 0.03,-0.0144 0.06,0.6996 0.09,0.6852 0.03,-0.0144 0.06,-5.2073 0.09,-5.2216 0.0299,-0.0143 0.0599,10.1132 0.0899,10.0989 0.0299,-0.0142 0.0598,-2.7309 0.0898,-2.7451 0.0299,-0.0142 0.0598,-2.3634 0.0897,-2.3776 0.0299,-0.0141 0.0598,2.2084 0.0897,2.1942 0.0299,-0.014 0.0598,3.2222 0.0897,3.2081 0.0302,-0.0142 0.0604,-4.3393 0.0906,-4.3535 0.0302,-0.0141 0.0604,-4.4876 0.0906,-4.5017 0.0301,-0.014 0.0603,-1.9861 0.0905,-2.0002 0.0305,-0.0142 0.061,-0.9771 0.0915,-0.9913 0.0304,-0.0141 0.0609,8.5122 0.0914,8.4981 0.0304,-0.0141 0.0609,-5.342 0.0914,-5.356 0.0304,-0.014 0.0608,2.5967 0.0913,2.5827 0.0303,-0.014 0.0607,0.3034 0.0912,0.2895 0.0303,-0.0139 0.0607,1.0792 0.0911,1.0653 0.0303,-0.0138 0.0607,-0.3525 0.0911,-0.3664 0.0303,-0.0137 0.0606,2.5861 0.091,2.5723 0.0303,-0.0137 0.0606,-2.1799 0.0909,-2.1936 0.0303,-0.0137 0.0606,2.9917 0.0909,2.978 0.0302,-0.0136 0.0605,-6.2453 0.0907,-6.2589 0.0303,-0.0135 0.0605,5.7524 0.0908,5.7388 0.0301,-0.0135 0.0603,-9.5249 0.0906,-9.5383 0.0301,-0.0135 0.0603,2.3509 0.0905,2.3375 0.0305,-0.0136 0.061,4.3227 0.0916,4.3092 0.0304,-0.0135 0.0609,-2.7066 0.0914,-2.72 0.0308,-0.0136 0.0616,7.7104 0.0924,7.6969 0.0308,-0.0135 0.0616,-2.4045 0.0924,-2.418 0.0307,-0.0134 0.0615,-1.2666 0.0922,-1.28 0.0307,-0.0134 0.0615,-1.3487 0.0922,-1.3621 0.0307,-0.0133 0.0614,-1.8172 0.0921,-1.8305 0.0307,-0.0133 0.0613,-3.7421 0.092,-3.7554 0.0306,-0.0132 0.0613,4.0275 0.092,4.0143 0.0305,-0.0132 0.0612,-0.9064 0.0918,-0.9195 0.0306,-0.0131 0.0611,-1.341 0.0918,-1.354 0.0305,-0.0131 0.0611,2.3257 0.0916,2.3127 0.0305,-0.013 0.0611,-6.6146 0.0916,-6.6276 0.0305,-0.0129 0.061,10.5559 0.0915,10.543 0.0305,-0.0129 0.0609,0.5561 0.0914,0.5432 0.0305,-0.0128 0.0609,-1.4395 0.0914,-1.4524 0.0307,-0.0129 0.0615,-1.9732 0.0922,-1.9861 0.0308,-0.0129 0.0615,-5.5267 0.0922,-5.5396 0.0311,-0.013 0.0621,1.1017 0.0932,1.0888 0.031,-0.0129 0.062,-3.0605 0.093,-3.0734 0.031,-0.0129 0.0619,6.5937 0.093,6.5809 0.0309,-0.0128 0.0618,2.4592 0.0928,2.4464 0.0309,-0.0127 0.0618,-7.264 0.0928,-7.2767 0.0308,-0.0127 0.0617,3.5791 0.0926,3.5665 0.0309,-0.0126 0.0617,2.342 0.0926,2.3294 0.0308,-0.0126 0.0616,-2.7897 0.0925,-2.8023 0.0307,-0.0125 0.0615,0.9652 0.0923,0.9527 0.0308,-0.0124 0.0615,2.6962 0.0923,2.6838 0.0307,-0.0124 0.0615,-3.5493 0.0922,-3.5616 0.0307,-0.0124 0.0614,-1.8041 0.0921,-1.8164 0.0306,-0.0123 0.0613,3.0647 0.092,3.0525 0.0309,-0.0124 0.0619,-2.1941 0.0929,-2.2065 0.0312,-0.0124 0.0625,-2.1821 0.0938,-2.1945 0.0312,-0.0124 0.0625,6.1234 0.0937,6.111 0.0312,-0.0123 0.0624,0.4002 0.0937,0.3879 0.0311,-0.0122 0.0623,-1.4576 0.0935,-1.4698 0.0311,-0.0123 0.0622,-1.8273 0.0934,-1.8395 0.0311,-0.0121 0.0622,-2.9133 0.0933,-2.9254 0.031,-0.0121 0.0621,6.1531 0.0932,6.141 0.031,-0.012 0.062,-3.2121 0.0931,-3.2241 0.0309,-0.012 0.0619,-4.74 0.093,-4.7519 0.0309,-0.012 0.0619,7.4996 0.0928,7.4877 0.0309,-0.0119 0.0619,-2.1737 0.0928,-2.1855 0.0309,-0.0118 0.0618,-1.0469 0.0927,-1.0587 0.0308,-0.0117 0.0616,1.8008 0.0925,1.789 0.0311,-0.0118 0.0623,0.1316 0.0935,0.1197 0.0314,-0.0119 0.0628,-5.4563 0.0943,-5.4682 0.0314,-0.0118 0.0628,8.1911 0.0942,8.1793 0.0314,-0.0118 0.0628,-4.349 0.0942,-4.3608 0.0313,-0.0117 0.0626,-3.5974 0.094,-3.6091 0.0312,-0.0117 0.0625,10.1498 0.0938,10.1382 0.0313,-0.0117 0.0625,-4.2039 0.0938,-4.2155 0.0312,-0.0116 0.0624,-0.8508 0.0936,-0.8624 0.0312,-0.0115 0.0624,-3.4539 0.0936,-3.4654 0.0311,-0.0115 0.0622,-0.9548 0.0934,-0.9662 0.0311,-0.0114 0.0622,1.7393 0.0933,1.7279 0.031,-0.0114 0.0621,-9.0951 0.0932,-9.1065 0.031,-0.0113 0.062,11.7481 0.093,11.7368 0.0316,-0.0114 0.0633,-1.3981 0.0949,-1.4096 0.0316,-0.0114 0.0632,-1.6822 0.0948,-1.6936 0.0316,-0.0113 0.0631,1.6632 0.0947,1.6518 0.0315,-0.0113 0.063,1.128 0.0945,1.1167 0.0315,-0.0113 0.063,0.5091 0.0945,0.4978 0.0314,-0.0112 0.0628,-2.453 0.0943,-2.4642 0.0313,-0.0111 0.0627,2.5825 0.0941,2.5714 0.0313,-0.0111 0.0627,-3.7857 0.0941,-3.7968 0.0312,-0.011 0.0625,3.1111 0.0939,3.1001 0.0312,-0.011 0.0625,-4.7775 0.0938,-4.7884 0.0311,-0.011 0.0624,7.6572 0.0936,7.6463 0.0312,-0.0109 0.0623,-5.1779 0.0935,-5.1887 0.0318,-0.0111 0.0636,2.7565 0.0954,2.7454 0.0317,-0.011 0.0634,-1.4393 0.0952,-1.4503 0.0317,-0.0109 0.0634,-0.9778 0.0951,-0.9888 0.0316,-0.0108 0.0632,1.8027 0.0949,1.7918 0.0316,-0.0108 0.0632,-2.0726 0.0948,-2.0834 0.0316,-0.0108 0.0631,2.4329 0.0947,2.4221 0.0315,-0.0107 0.063,-2.1513 0.0945,-2.162 0.0315,-0.0107 0.0629,4.8099 0.0944,4.7993 0.0314,-0.0106 0.0628,-4.113 0.0943,-4.1236 0.0313,-0.0106 0.0627,-7.1497 0.0941,-7.1603 0.0313,-0.0105 0.0626,5.5234 0.094,5.5129 0.0319,-0.0107 0.0638,-3.0067 0.0958,-3.0174 0.0318,-0.0106 0.0637,2.6502 0.0956,2.6396 0.0318,-0.0105 0.0636,1.074 0.0954,1.0635 0.0318,-0.0105 0.0636,-1.2864 0.0954,-1.2969 0.0317,-0.0105 0.0634,-1.3093 0.0952,-1.3197 0.0316,-0.0104 0.0633,6.9515 0.095,6.9411 0.0316,-0.0103 0.0632,-2.2068 0.0949,-2.2171 0.0316,-0.0103 0.0631,-1.9576 0.0948,-1.9678 0.0315,-0.0103 0.063,3.2319 0.0946,3.2217 0.0314,-0.0102 0.0629,-5.2093 0.0944,-5.2195 0.0314,-0.0101 0.0629,3.824 0.0943,3.8139 0.032,-0.0102 0.064,0.1495 0.0961,0.1392 0.0319,-0.0102 0.0639,-5.742 0.0959,-5.7522 0.0319,-0.0102 0.0638,3.3139 0.0957,3.3037 0.0318,-0.0101 0.0637,1.8326 0.0956,1.8225 0.0318,-0.01 0.0636,0.0157 0.0954,0.0057 0.0318,-0.01 0.0635,2.1421 0.0953,2.1321 0.0317,-0.01 0.0634,-4.8235 0.0951,-4.8334 0.0317,-0.0099 0.0633,2.6118 0.095,2.6019 0.0316,-0.0098 0.0632,0.5115 0.0948,0.5017 0.0315,-0.0098 0.0631,-0.2205 0.0947,-0.2303 0.0321,-0.0099 0.0642,-2.0774 0.0963,-2.0873 0.0321,-0.0099 0.0641,-4.1612 0.0962,-4.171 0.032,-0.0098 0.064,4.9038 0.096,4.894 0.032,-0.0097 0.0639,0.848 0.0959,0.8383 0.0319,-0.0098 0.0638,-5.8464 0.0957,-5.8561 0.0318,-0.0096 0.0637,2.804 0.0955,2.7944 0.0318,-0.0096 0.0636,1.6969 0.0954,1.6873 0.0317,-0.0096 0.0635,-0.7263 0.0952,-0.7359 0.0317,-0.0095 0.0634,4.7946 0.0951,4.7852 0.0316,-0.0095 0.0632,3.595 0.0949,3.5855 0.0321,-0.0096 0.0643,-9.183 0.0965,-9.1926 0.0321,-0.0095 0.0642,3.1374 0.0964,3.1279 0.032,-0.0095 0.0641,-1.1892 0.0962,-1.1986 0.032,-0.0095 0.064,2.8121 0.096,2.8027 0.0319,-0.0093 0.0639,-2.4618 0.0959,-2.4711 0.0318,-0.0094 0.0637,2.8176 0.0956,2.8083 0.0319,-0.0092 0.0637,-1.766 0.0956,-1.7752 0.0317,-0.0092 0.0635,-3.7855 0.0953,-3.7947 0.0323,-0.0094 0.0646,0.9286 0.097,0.9193 0.0322,-0.0093 0.0645,3.2769 0.0967,3.2676 0.0322,-0.0092 0.0644,1.2217 0.0966,1.2125 0.0322,-0.0092 0.0643,-3.5976 0.0965,-3.6067 0.032,-0.0091 0.0641,0.5431 0.0962,0.534 0.032,-0.0091 0.064,-0.9039 0.0961,-0.9129 0.0319,-0.009 0.0639,-2.5611 0.0958,-2.5701 0.0319,-0.009 0.0638,3.1241 0.0957,3.1151 0.0319,-0.0089 0.0637,2.5329 0.0956,2.524 0.0323,-0.009 0.0647,-0.5035 0.0971,-0.5125 0.0322,-0.009 0.0645,-9.7076 0.0969,-9.7165 0.0322,-0.0089 0.0644,3.0171 0.0967,3.0082 0.0322,-0.0089 0.0643,4.9331 0.0965,4.9243 0.0321,-0.0088 0.0642,1.9133 0.0964,1.9045 0.032,-0.0088 0.0641,-3.3301 0.0961,-3.3389 0.032,-0.0087 0.064,4.8692 0.096,4.8605 0.0319,-0.0086 0.0638,-1.7693 0.0958,-1.7779 0.0324,-0.0088 0.0649,1.7026 0.0973,1.6938 0.0324,-0.0087 0.0648,1.3167 0.0972,1.308 0.0322,-0.0086 0.0646,-4.2229 0.0969,-4.2315 0.0322,-0.0086 0.0645,-9.2339 0.0967,-9.2425 0.0322,-0.0086 0.0644,9.2905 0.0966,9.2819 0.0321,-0.0085 0.0642,-1.5352 0.0963,-1.5436 0.032,-0.0085 0.0641,0.4938 0.0962,0.4853 0.0319,-0.0084 0.0639,4.5247 0.0959,4.5164 0.0325,-0.0085 0.065,-8.8175 0.0975,-8.826 0.0324,-0.0085 0.0648,6.4207 0.0972,6.4123 0.0324,-0.0084 0.0647,-2.7283 0.0971,-2.7367 0.0323,-0.0083 0.0645,-0.8788 0.0968,-0.8871 0.0322,-0.0083 0.0644,3.5168 0.0967,3.5085 0.0321,-0.0083 0.0643,-3.612 0.0964,-3.6202 0.0321,-0.0082 0.0642,1.6689 0.0963,1.6607 0.0325,-0.0082 0.0651,-2.8811 0.0977,-2.8894 0.0324,-0.0082 0.0649,2.6888 0.0975,2.6806 0.0324,-0.0082 0.0648,0.8893 0.0973,0.8812 0.0323,-0.0082 0.0647,3.0175 0.097,3.0094 0.0323,-0.0081 0.0646,-3.1464 0.0969,-3.1545 0.0322,-0.008 0.0644,0.6419 0.0966,0.6339 0.0322,-0.008 0.0643,-3.2734 0.0965,-3.2813 0.032,-0.008 0.0641,2.2119 0.0962,2.204 0.0325,-0.008 0.0651,-5.1777 0.0977,-5.1857 0.0324,-0.008 0.0649,6.1674 0.0974,6.1595 0.0324,-0.0079 0.0648,-6.3375 0.0972,-6.3454 0.0323,-0.0079 0.0647,5.4992 0.097,5.4913 0.0323,-0.0078 0.0645,3.1266 0.0968,3.1188 0.0322,-0.0077 0.0644,-3.6204 0.0966,-3.6281 0.0326,-0.0078 0.0653,1.9262 0.0979,1.9184 0.0326,-0.0078 0.0652,1.0173 0.0978,1.0096 0.0325,-0.0078 0.065,-3.8064 0.0975,-3.8141 0.0324,-0.0077 0.0648,0.3402 0.0973,0.3326 0.0323,-0.0077 0.0647,1.8193 0.097,1.8117 0.0323,-0.0076 0.0646,-3.8182 0.0969,-3.8257 0.0322,-0.0076 0.0644,11.1401 0.0966,11.1326 0.0326,-0.0076 0.0653,-12.6838 0.098,-12.6914 0.0325,-0.0076 0.0651,3.1344 0.0977,3.1269 0.0325,-0.0076 0.065,2.385 0.0975,2.3776 0.0324,-0.0075 0.0648,3.4743 0.0973,3.4669 0.0323,-0.0074 0.0646,-4.9364 0.097,-4.9438 0.0328,-0.0075 0.0656,-4.6304 0.0984,-4.6379 0.0327,-0.0074 0.0654,4.9445 0.0981,4.937 0.0327,-0.0073 0.0653,-0.9413 0.0979,-0.9487 0.0326,-0.0073 0.0651,-0.5236 0.0977,-0.5309 0.0324,-0.0073 0.0649,-3.7486 0.0974,-3.7558 0.0324,-0.0072 0.0648,-1.8944 0.0972,-1.9016 0.0323,-0.0072 0.0646,11.3104 0.0969,11.3032 0.0322,-0.0071 0.0644,-5.7445 0.0967,-5.7516 0.0326,-0.0072 0.0653,-5.9259 0.098,-5.9331 0.0325,-0.0071 0.0651,3.6562 0.0977,3.6491 0.0325,-0.0071 0.065,-3.8747 0.0975,-3.8818 0.0324,-0.007 0.0648,7.1316 0.0972,7.1246 0.0328,-0.0071 0.0657,-2.5761 0.0986,-2.5832 0.0327,-0.007 0.0654,3.0972 0.0982,3.0902 0.0327,-0.007 0.0653,0.803 0.098,0.796 0.0326,-0.007 0.0652,-7.3543 0.0978,-7.3613 0.0325,-0.0069 0.0649,4.6018 0.0975,4.5949 0.0324,-0.0068 0.0648,-1.3458 0.0972,-1.3526 0.0323,-0.0068 0.0646,2.7657 0.097,2.759 0.0327,-0.0069 0.0654,-4.9833 0.0982,-4.9901 0.0326,-0.0068 0.0653,5.7616 0.098,5.7548 0.0325,-0.0067 0.0651,-2.0547 0.0977,-2.0614 0.0324,-0.0068 0.0649,-2.881 0.0974,-2.8877 0.0329,-0.0068 0.0657,1.4756 0.0986,1.4688 0.0328,-0.0067 0.0656,4.425 0.0984,4.4183 0.0327,-0.0067 0.0654,-6.6199 0.0981,-6.6265 0.0326,-0.0067 0.0652,4.7292 0.0979,4.7226 0.0325,-0.0066 0.065,3.367 0.0975,3.3605 0.0325,-0.0066 0.0649,-1.3123 0.0973,-1.3188 0.0328,-0.0066 0.0657,-3.2667 0.0985,-3.2733 0.0327,-0.0065 0.0655,-2.2173 0.0982,-2.2238 0.0327,-0.0065 0.0653,8.336 0.098,8.3295 0.0325,-0.0064 0.065,-1.7483 0.0976,-1.7547 0.0329,-0.0065 0.0659,3.601 0.0988,3.5945 0.0329,-0.0064 0.0657,-8.6793 0.0986,-8.6857 0.0327,-0.0064 0.0654,-1.1357 0.0982,-1.1421 0.0326,-0.0064 0.0653,0.3212 0.098,0.3149 0.0325,-0.0063 0.0651,0.5274 0.0976,0.5212 0.0325,-0.0063 0.0649,3.1927 0.0974,3.1865 0.0328,-0.0063 0.0657,3.2524 0.0985,3.2461 0.0328,-0.0062 0.0655,-8.8897 0.0983,-8.8959 0.0326,-0.0062 0.0652,2.0208 0.0979,2.0146 0.033,-0.0062 0.066,-1.2741 0.0991,-1.2803 0.0329,-0.0062 0.0658,-1.0643 0.0987,-1.0705 0.0328,-0.0061 0.0656,3.6677 0.0985,3.6616 0.0327,-0.0061 0.0654,1.8241 0.0981,1.818 0.0326,-0.006 0.0652,0.2222 0.0979,0.2162 0.0325,-0.006 0.065,-3.7052 0.0975,-3.7112 0.0329,-0.006 0.0657,6.1869 0.0986,6.1809 0.0328,-0.006 0.0656,-4.4387 0.0984,-4.4446 0.0326,-0.006 0.0653,-0.4919 0.098,-0.4978 0.033,-0.006 0.066,-3.3597 0.0991,-3.3657 0.0329,-0.0059 0.0658,5.3694 0.0987,5.3635 0.0328,-0.0059 0.0656,-3.7852 0.0985,-3.791 0.0327,-0.0058 0.0654,8.8956 0.0981,8.8897 0.0326,-0.0057 0.0652,-7.2689 0.0978,-7.2747 0.0325,-0.0057 0.065,6.6774 0.0975,6.6717 0.0329,-0.0058 0.0657,-4.6127 0.0986,-4.6185 0.0327,-0.0057 0.0654,1.5183 0.0982,1.5126 0.033,-0.0057 0.0661,-0.3413 0.0992,-0.347 0.033,-0.0057 0.0659,-1.187 0.0989,-1.1927 0.0329,-0.0056 0.0657,-7.8088 0.0986,-7.8144 0.0327,-0.0056 0.0655,2.862 0.0982,2.8564 0.0327,-0.0055 0.0653,-2.382 0.098,-2.3875 0.0329,-0.0056 0.0659,8.7515 0.0989,8.746 0.0328,-0.0056 0.0657,-1.3001 0.0985,-1.3056 0.0332,-0.0056 0.0664,-3.6635 0.0996,-3.6691 0.033,-0.0055 0.0661,0.8844 0.0992,0.8789 0.0329,-0.0055 0.0659,4.0182 0.0988,4.0127 0.0328,-0.0054 0.0657,-1.4348 0.0985,-1.4402 0.0327,-0.0054 0.0655,-3.2865 0.0982,-3.2918 0.0326,-0.0053 0.0652,3.7999 0.0978,3.7946 0.0329,-0.0053 0.0658,1.9661 0.0988,1.9608 0.0332,-0.0054 0.0664,-2.04 0.0997,-2.0454 0.0331,-0.0053 0.0662,2.8256 0.0993,2.8202 0.033,-0.0052 0.066,-8.4303 0.099,-8.4356 0.0328,-0.0052 0.0657,5.4566 0.0986,5.4514 0.0327,-0.0052 0.0655,-6.6028 0.0983,-6.608 0.0326,-0.0051 0.0652,0.189 0.0979,0.1838 0.0329,-0.0051 0.0658,6.4274 0.0988,6.4223 0.0332,-0.0052 0.0664,6.8933 0.0996,6.8882 0.0331,-0.0052 0.0662,-7.9333 0.0993,-7.9384 0.033,-0.0051 0.066,-3.7573 0.099,-3.7623 0.0328,-0.0051 0.0657,1.2808 0.0986,1.2758 0.0327,-0.005 0.0654,2.2741 0.0981,2.2691 0.033,-0.005 0.0661,0.3099 0.0991,0.3049 0.0329,-0.0049 0.0658,0.6993 0.0987,0.6944 0.0331,-0.005 0.0663,-2.2115 0.0995,-2.2164 0.033,-0.005 0.066,-1.5331 0.0991,-1.538 0.0329,-0.0049 0.0658,5.2876 0.0987,5.2828 0.0328,-0.0049 0.0656,-8.2311 0.0984,-8.2359 0.0326,-0.0048 0.0653,5.5336 0.098,5.5288 0.0329,-0.0048 0.0658,-0.0991 0.0987,-0.1039 0.0332,-0.0048 0.0664,-1.0041 0.0996,-1.0089 0.0331,-0.0048 0.0661,0.4922 0.0992,0.4875 0.0329,-0.0047 0.0658,-0.558 0.0988,-0.5627 0.0328,-0.0046 0.0655,-0.0632 0.0984,-0.0679 0.033,-0.0047 0.066,0.4816 0.0991,0.477 0.0333,-0.0047 0.0666,0.9256 0.0999,0.9209 0.0332,-0.0047 0.0663,-2.325 0.0995,-2.3296 0.033,-0.0047 0.0661,4.3646 0.0991,4.3601 0.0329,-0.0046 0.0658,-0.9119 0.0987,-0.9164 0.0327,-0.0045 0.0655,4.8162 0.0982,4.8117 0.033,-0.0046 0.066,-5.6638 0.099,-5.6683 0.0332,-0.0045 0.0665,2.2649 0.0997,2.2604 0.0331,-0.0045 0.0662,2.0309 0.0993,2.0264 0.033,-0.0044 0.0659,-9.0168 0.0989,-9.0212 0.0328,-0.0044 0.0656,0.1777 0.0984,0.1733 0.033,-0.0044 0.0661,5.3484 0.0991,5.3441 0.0333,-0.0045 0.0666,0.8411 0.0999,0.8368 0.0331,-0.0044 0.0662,-0.5419 0.0993,-0.5462 0.033,-0.0043 0.066,1.5695 0.0989,1.5652 0.0329,-0.0043 0.0657,-3.5264 0.0985,-3.5307 0.0331,-0.0043 0.0661,-7.6064 0.0992,-7.6107 0.0332,-0.0043 0.0665,6.2457 0.0998,6.2414 0.0331,-0.0042 0.0662,0.874 0.0993,0.8697 0.033,-0.0041 0.0659,0.702 0.0989,0.6978 0.0328,-0.0041 0.0656,-3.733 0.0984,-3.7371 0.0334,-0.0042 0.0668,0.8878 0.1002,0.8836 0.0332,-0.0042 0.0664,4.8724 0.0996,4.8683 0.0331,-0.0041 0.0661,3.0263 0.0992,3.0222 0.0329,-0.004 0.0658,-7.9491 0.0987,-7.9531 0.0331,-0.004 0.0662,5.3933 0.0993,5.3893 0.0333,-0.0041 0.0666,0.8703 0.0999,0.8663 0.0331,-0.004 0.0663,-4.6068 0.0994,-4.6108 0.033,-0.004 0.066,0.149 0.0989,0.145 0.0328,-0.0039 0.0657,4.6948 0.0985,4.6909 0.0333,-0.0039 0.0667,-4.2494 0.1,-4.2533 0.0332,-0.0039 0.0663,1.4688 0.0995,1.4649 0.033,-0.0039 0.066,0.0879 0.0991,0.084 0.0328,-0.0038 0.0657,-7.1732 0.0985,-7.177 0.0334,-0.0039 0.0667,7.6947 0.1001,7.6909 0.0332,-0.0038 0.0663,3.2633 0.0995,3.2595 0.033,-0.0038 0.0661,0.1892 0.0991,0.1855 0.0328,-0.0037 0.0657,0.0995 0.0986,0.0958 0.0333,-0.0038 0.0666,-4.9235 0.1,-4.9273 0.0331,-0.0037 0.0663,-0.2324 0.0995,-0.2361 0.0329,-0.0036 0.0659,2.1759 0.099,2.1723 0.0328,-0.0036 0.0656,-0.2744 0.0984,-0.278 0.0333,-0.0036 0.0666,-1.2746 0.0999,-1.2783 0.0331,-0.0036 0.0662,-4.1235 0.0994,-4.1271 0.0329,-0.0035 0.0658,-0.9273 0.0988,-0.9308 0.0334,-0.0036 0.0668,3.6535 0.1002,3.65 0.0332,-0.0036 0.0664,1.3678 0.0996,1.3643 0.033,-0.0035 0.0661,-2.8015 0.0991,-2.805 0.0335,-0.0035 0.0669,-3.8047 0.1004,-3.8082 0.0333,-0.0035 0.0666,6.1487 0.0999,6.1453 0.0331,-0.0034 0.0662,0.1023 0.0993,0.0989 0.0329,-0.0034 0.0658,1.2391 0.0988,1.2357 0.0333,-0.0034 0.0666,-1.0517 0.1,-1.0551 0.0331,-0.0034 0.0663,-3.883 0.0995,-3.8864 0.0329,-0.0033 0.0659,3.2704 0.0988,3.2671 0.0334,-0.0033 0.0668,-0.4345 0.1002,-0.4378 0.0331,-0.0033 0.0663,-4.5365 0.0995,-4.5398 0.033,-0.0032 0.0659,2.6441 0.0989,2.6408 0.0334,-0.0032 0.0668,1.0582 0.1002,1.055 0.0331,-0.0033 0.0663,-5.2535 0.0995,-5.2567 0.033,-0.0032 0.066,9.0275 0.099,9.0243 0.0333,-0.0032 0.0667,-4.019 0.1001,-4.0221 0.0331,-0.0032 0.0663,-0.5238 0.0994,-0.527 0.033,-0.0031 0.0659,0.2135 0.0989,0.2104 0.0333,-0.0031 0.0666,-1.5314 0.1,-1.5345 0.0331,-0.0031 0.0662,-2.6598 0.0993,-2.6629 0.0335,-0.0031 0.067,10.2805 0.1004,10.2774 0.0333,-0.003 0.0665,-5.9633 0.0998,-5.9663 0.033,-0.003 0.0661,2.6067 0.0992,2.6037 0.0333,-0.003 0.0667,-1.6185 0.1001,-1.6215 0.0332,-0.0029 0.0663,-0.6001 0.0995,-0.603 0.0335,-0.003 0.067,4.4236 0.1005,4.4206 0.0333,-0.0029 0.0666,-7.0291 0.0999,-7.032 0.033,-0.0029 0.0661,0.6419 0.0991,0.6391 0.0334,-0.0029 0.0668,0.1258 0.1001,0.1229 0.0332,-0.0028 0.0663,-6.8154 0.0995,-6.8182 0.0334,-0.0028 0.0669,10.7205 0.1003,10.7177 0.0332,-0.0028 0.0665,-5.1026 0.0997,-5.1054 0.033,-0.0027 0.066,0.2008 0.099,0.1981 0.0332,-0.0028 0.0665,-2.7036 0.0998,-2.7064 0.033,-0.0027 0.0661,0.1518 0.0992,0.1491 0.0333,-0.0027 0.0666,8.6299 0.0999,8.6272 0.0331,-0.0027 0.0662,-4.3549 0.0993,-4.3576 0.0333,-0.0026 0.0667,4.667 0.1,4.6643 0.0331,-0.0026 0.0663,-5.7818 0.0994,-5.7844 0.0333,-0.0027 0.0667,4.9786 0.1001,4.976 0.0331,-0.0026 0.0662,-5.3135 0.0993,-5.316 0.0334,-0.0026 0.0667,1.6231 0.1001,1.6205 0.0331,-0.0025 0.0662,3.258 0.0993,3.2554 0.0334,-0.0025 0.0667,-3.5457 0.1001,-3.5482 0.033,-0.0025 0.0661,1.108 0.0992,1.1055 0.0333,-0.0025 0.0666,1.2362 0.1,1.2338 0.0335,-0.0025 0.067,4.0011 0.1005,3.9986 0.0332,-0.0024 0.0665,-5.4716 0.0998,-5.4741 0.0329,-0.0024 0.0659,0.3942 0.099,0.3919 0.0331,-0.0024 0.0663,-5.342 0.0995,-5.3444 0.0334,-0.0024 0.0668,-1.363 0.1002,-1.3654 0.033,-0.0023 0.0662,3.6295 0.0995,3.6272 0.033,-0.0023 0.066,6.6379 0.1,6.6356 0.033,-0.0023 0.067,-5.2964 0.1,-5.2987 0.033,-0.0023 0.066,1.5301 0.1,1.5278 0.033,-0.0023 0.066,3.3271 0.1,3.3248 0.033,-0.0022 0.066,-2.1321 0.1,-2.1343 0.033,-0.0022 0.066,-0.5895 0.1,-0.5917 0.033,-0.0022 0.066,-3.0253 0.1,-3.0275 0.033,-0.0022 0.066,4.542 0.1,4.5399 0.033,-0.0022 0.066,-5.1565 0.099,-5.1587 0.034,-0.0021 0.067,0.8088 0.1,0.8067 0.034,-0.0021 0.067,0.0349 0.1,0.0328 0.033,-0.0021 0.067,0.5227 0.1,0.5207 0.033,-0.0021 0.067,2.8991 0.1,2.897 0.034,-0.002 0.067,0.3731 0.1,0.371 0.033,-0.002 0.066,4.3014 0.099,4.2994 0.034,-0.002 0.067,-7.7767 0.1,-7.7787 0.034,-0.0019 0.067,0.5908 0.1,0.5889 0.033,-0.002 0.067,-0.7018 0.1,-0.7037 0.034,-0.002 0.067,0.1821 0.1,0.1802 0.033,-0.0019 0.067,1.5312 0.1,1.5293 0.033,-0.0019 0.067,2.7018 0.1,2.6999 0.033,-0.0018 0.066,-5.9683 0.099,-5.9701 0.033,-0.0019 0.067,1.8547 0.1,1.8529 0.033,-0.0018 0.066,5.5948 0.099,5.5931 0.034,-0.0019 0.067,-4.7901 0.1,-4.7919 0.033,-0.0017 0.067,0.6762 0.1,0.6745 0.033,-0.0018 0.066,1.8817 0.1,1.88 0.033,-0.0018 0.066,-4.3663 0.099,-4.368 0.033,-0.0017 0.067,3.5917 0.1,3.59 0.033,-0.0017 0.066,0.0449 0.099,0.0432 0.033,-0.0017 0.067,0.3833 0.1,0.3816 0.033,-0.0017 0.067,2.3692 0.101,2.3675 0.033,-0.0016 0.066,0.2805 0.099,0.2789 0.034,-0.0017 0.067,-10.9142 0.101,-10.9158 0.033,-0.0016 0.066,5.884 0.099,5.8824 0.033,-0.0016 0.066,1.5282 0.1,1.5266 0.033,-0.0016 0.067,0.9552 0.1,0.9536 0.033,-0.0015 0.066,-5.7373 0.099,-5.7388 0.034,-0.0015 0.067,-0.0939 0.1,-0.0954 0.034,-0.0015 0.067,1.2578 0.101,1.2563 0.033,-0.0014 0.066,3.5848 0.099,3.5834 0.033,-0.0015 0.066,-0.3468 0.1,-0.3482 0.033,-0.0015 0.066,-1.4081 0.1,-1.4095 0.033,-0.0014 0.067,5.7228 0.1,5.7214 0.034,-0.0014 0.067,-8.8892 0.101,-8.8906 0.033,-0.0014 0.066,4.0142 0.099,4.0129 0.034,-0.0014 0.067,4.0895 0.1,4.0882 0.033,-0.0014 0.067,-5.0371 0.1,-5.0384 0.033,-0.0013 0.067,2.438 0.1,2.4367 0.033,-0.0013 0.067,1.5565 0.1,1.5552 0.034,-0.0013 0.067,0.1315 0.1,0.1302 0.034,-0.0012 0.067,-4.3609 0.101,-4.3621 0.033,-0.0012 0.066,-1.2334 0.1,-1.2346 0.033,-0.0012 0.067,6.4927 0.1,6.4915 0.033,-0.0012 0.067,1.7543 0.1,1.7532 0.033,-0.0012 0.067,-3.9386 0.1,-3.9397 0.033,-0.0011 0.066,-0.7017 0.1,-0.7028 0.033,-0.0011 0.066,-0.0158 0.099,-0.0169 0.033,-0.0011 0.067,2.1827 0.1,2.1816 0.034,-0.0011 0.067,4.9555 0.1,4.9544 0.034,-0.0011 0.067,-11.0639 0.1,-11.0649 0.033,-0.0011 0.067,2.9221 0.1,2.921 0.034,-10e-4 0.067,3.1365 0.1,3.1355 0.033,-10e-4 0.066,-9.3165 0.1,-9.3174 0.033,-10e-4 0.066,7.8024 0.099,7.8015 0.034,-10e-4 0.067,2.7845 0.101,2.7836 0.033,-9e-4 0.067,-7.1853 0.1,-7.1862 0.034,-9e-4 0.067,0.6127 0.1,0.6118 0.033,-9e-4 0.066,5.5625 0.099,5.5616 0.033,-9e-4 0.066,-4.1585 0.099,-4.1594 0.033,-8e-4 0.066,-0.1255 0.099,-0.1263 0.033,-8e-4 0.066,2.4867 0.099,2.4859 0.034,-8e-4 0.067,-3.6648 0.1,-3.6656 0.034,-8e-4 0.068,4.0401 0.101,4.0393 0.034,-8e-4 0.067,-2.1106 0.1,-2.1113 0.034,-8e-4 0.067,-2.813 0.1,-2.8137 0.033,-7e-4 0.066,6.833 0.1,6.8323 0.033,-7e-4 0.066,-0.0306 0.1,-0.0313 0.033,-7e-4 0.066,-1.2377 0.1,-1.2384 0.033,-7e-4 0.066,1.1898 0.1,1.1892 0.033,-7e-4 0.066,-9.5656 0.099,-9.5663 0.034,-6e-4 0.067,3.3836 0.1,3.383 0.034,-6e-4 0.067,8.8933 0.1,8.8927 0.034,-7e-4 0.067,-2.4701 0.101,-2.4707 0.033,-6e-4 0.066,0.3517 0.1,0.3511 0.033,-5e-4 0.066,-6.1385 0.099,-6.139 0.034,-6e-4 0.068,2.5919 0.101,2.5913 0.033,-5e-4 0.067,0.5546 0.1,0.5541 0.033,-5e-4 0.066,5.2062 0.099,5.2057 0.034,-5e-4 0.067,-2.7962 0.101,-2.7967 0.033,-4e-4 0.066,-1.8692 0.099,-1.8696 0.033,-5e-4 0.066,-3.7243 0.1,-3.7248 0.033,-4e-4 0.066,4.4432 0.1,4.4428 0.033,-4e-4 0.066,-6.811 0.1,-6.8114 0.033,-4e-4 0.066,7.859 0.099,7.8586 0.034,-4e-4 0.068,-2.375 0.101,-2.3754 0.033,-4e-4 0.066,-4.7476 0.1,-4.7479 0.033,-4e-4 0.066,6.15 0.099,6.1497 0.034,-3e-4 0.067,-0.6423 0.101,-0.6426 0.033,-3e-4 0.066,-2.9948 0.099,-2.9951 0.033,-3e-4 0.066,0.5906 0.099,0.5904 0.034,-3e-4 0.067,1.7431 0.101,1.7428 0.033,-2e-4 0.067,-0.1883 0.1,-0.1885 0.033,-2e-4 0.067,-1.0338 0.1,-1.034 0.034,-2e-4 0.067,2.5048 0.101,2.5046 0.033,-2e-4 0.066,-3.8608 0.099,-3.8609 0.033,-2e-4 0.067,-3.7864 0.1,-3.7865 0.033,-2e-4 0.067,3.6827 0.1,3.6826 0.034,-2e-4 0.067,7.5 0.101,7.4999 0.033,-10e-5 0.067,-8.3962 0.101,-8.3963 0.033,-1e-4 0.066,3.2931 0.099,3.293 0.033,0 0.066,1.4735 0.1,1.4735 0.033,-10e-5 0.067,-8.0247 0.101,-8.0247 0.033,0 0.066,5.7433 0.099,5.7433 0.033,0 0.067,6.0929 0.1,6.0929"
       id="path1820-3"
       sodipodi:nodetypes="ccc" />
    <path
       style="color:#000000;overflow:visible;fill:none;stroke:#ff1a1a;stroke-width:0.352778;stroke-miterlimit:4;stroke-dasharray:none;stroke-dashoffset:171.418;stop-color:#000000"
       d="m 5,7 c 2.5,0 7.5,45.5 12.5,45.5 5,0 12.5,-42.5 84,-42.5"
       id="path1820"
       sodipodi:nodetypes="ccc" />
    <circle
       style="color:#000000;overflow:visible;fill:none;stroke:#000000;stroke-width:0.529167;stroke-miterlimit:4;stroke-dasharray:none;stroke-dashoffset:171.418;stroke-opacity:1;stop-color:#000000"
       id="path4054"
       cx="20.933786"
       cy="48.624382"
       r="2.9951806" />
    <path
       id="path1820-2"
       style="color:#000000;overflow:visible;fill:none;stroke:#ff0000;stroke-width:1.76388889;stroke-miterlimit:4;stroke-dasharray:none;stroke-dashoffset:171.418;stop-color:#000000;stroke-opacity:1"
       d="m 48.789233,78.112535 c 5.855305,-7.65603 12.979335,-19.71164 22.251285,-34.41666"
       sodipodi:nodetypes="cc" />
    <circle
       style="color:#000000;overflow:visible;fill:none;stroke:#000000;stroke-width:0.529167;stroke-miterlimit:4;stroke-dasharray:none;stroke-dashoffset:171.418;stroke-opacity:1;stop-color:#000000;font-variation-settings:normal;opacity:1;vector-effect:none;fill-opacity:1;stroke-linecap:butt;stroke-linejoin:miter;-inkscape-stroke:none;stop-opacity:1"
       id="path4054-9"
       cx="60.090038"
       cy="61.024178"
       r="20.497311" />
    <path
       style="color:#000000;font-variation-settings:normal;overflow:visible;opacity:1;vector-effect:none;fill:none;fill-opacity:1;stroke:#000000;stroke-width:0.529167;stroke-linecap:butt;stroke-linejoin:miter;stroke-miterlimit:4;stroke-dasharray:none;stroke-dashoffset:647.879;stroke-opacity:1;-inkscape-stroke:none;stop-color:#000000;stop-opacity:1"
       d="M 20.493716,45.662184 57.912969,40.644131"
       id="path13151"
       sodipodi:nodetypes="cc" />
    <path
       style="color:#000000;font-variation-settings:normal;overflow:visible;opacity:1;vector-effect:none;fill:none;fill-opacity:1;stroke:#000000;stroke-width:0.529167;stroke-linecap:butt;stroke-linejoin:miter;stroke-miterlimit:4;stroke-dasharray:none;stroke-dashoffset:647.879;stroke-opacity:1;-inkscape-stroke:none;stop-color:#000000;stop-opacity:1"
       d="M 45.920721,75.83592 18.714828,50.6395"
       id="path13153"
       sodipodi:nodetypes="cc" />
  </g>
</svg>
