<?xml version="1.0" encoding="utf-8" standalone="no"?>
<!DOCTYPE svg PUBLIC "-//W3C//DTD SVG 1.1//EN"
  "http://www.w3.org/Graphics/SVG/1.1/DTD/svg11.dtd">
<svg height="288pt" version="1.1" viewBox="0 0 576 288" width="576pt" xmlns="http://www.w3.org/2000/svg" xmlns:xlink="http://www.w3.org/1999/xlink">
 <metadata>
  <rdf:RDF xmlns:cc="http://creativecommons.org/ns#" xmlns:dc="http://purl.org/dc/elements/1.1/" xmlns:rdf="http://www.w3.org/1999/02/22-rdf-syntax-ns#">
   <cc:Work>
    <dc:type rdf:resource="http://purl.org/dc/dcmitype/StillImage"/>
    <dc:date>2022-05-04T19:53:53.491457</dc:date>
    <dc:format>image/svg+xml</dc:format>
    <dc:creator>
     <cc:Agent>
      <dc:title>Matplotlib v3.4.3, https://matplotlib.org/</dc:title>
     </cc:Agent>
    </dc:creator>
   </cc:Work>
  </rdf:RDF>
 </metadata>
 <defs>
  <style type="text/css">*{stroke-linecap:butt;stroke-linejoin:round;}</style>
 </defs>
 <g id="figure_1">
  <g id="patch_1">
   <path d="M 0 288 
L 576 288 
L 576 0 
L 0 0 
z
" style="fill:#cccccc;"/>
  </g>
  <g id="axes_1">
   <g id="patch_2">
    <path d="M 40.32 256.32 
L 570.24 256.32 
L 570.24 2.88 
L 40.32 2.88 
z
" style="fill:#ffffff;"/>
   </g>
   <g id="matplotlib.axis_1">
    <g id="xtick_1">
     <g id="line2d_1">
      <defs>
       <path d="M 0 0 
L 0 3.5 
" id="m314bae1dfe" style="stroke:#000000;stroke-width:0.8;"/>
      </defs>
      <g>
       <use style="stroke:#000000;stroke-width:0.8;" x="64.407273" xlink:href="#m314bae1dfe" y="256.32"/>
      </g>
     </g>
     <g id="text_1">
      <!-- 0 -->
      <g transform="translate(61.226023 270.918437)scale(0.1 -0.1)">
       <defs>
        <path d="M 2034 4250 
Q 1547 4250 1301 3770 
Q 1056 3291 1056 2328 
Q 1056 1369 1301 889 
Q 1547 409 2034 409 
Q 2525 409 2770 889 
Q 3016 1369 3016 2328 
Q 3016 3291 2770 3770 
Q 2525 4250 2034 4250 
z
M 2034 4750 
Q 2819 4750 3233 4129 
Q 3647 3509 3647 2328 
Q 3647 1150 3233 529 
Q 2819 -91 2034 -91 
Q 1250 -91 836 529 
Q 422 1150 422 2328 
Q 422 3509 836 4129 
Q 1250 4750 2034 4750 
z
" id="DejaVuSans-30" transform="scale(0.015625)"/>
       </defs>
       <use xlink:href="#DejaVuSans-30"/>
      </g>
     </g>
    </g>
    <g id="xtick_2">
     <g id="line2d_2">
      <g>
       <use style="stroke:#000000;stroke-width:0.8;" x="160.756364" xlink:href="#m314bae1dfe" y="256.32"/>
      </g>
     </g>
     <g id="text_2">
      <!-- 20 -->
      <g transform="translate(154.393864 270.918437)scale(0.1 -0.1)">
       <defs>
        <path d="M 1228 531 
L 3431 531 
L 3431 0 
L 469 0 
L 469 531 
Q 828 903 1448 1529 
Q 2069 2156 2228 2338 
Q 2531 2678 2651 2914 
Q 2772 3150 2772 3378 
Q 2772 3750 2511 3984 
Q 2250 4219 1831 4219 
Q 1534 4219 1204 4116 
Q 875 4013 500 3803 
L 500 4441 
Q 881 4594 1212 4672 
Q 1544 4750 1819 4750 
Q 2544 4750 2975 4387 
Q 3406 4025 3406 3419 
Q 3406 3131 3298 2873 
Q 3191 2616 2906 2266 
Q 2828 2175 2409 1742 
Q 1991 1309 1228 531 
z
" id="DejaVuSans-32" transform="scale(0.015625)"/>
       </defs>
       <use xlink:href="#DejaVuSans-32"/>
       <use x="63.623047" xlink:href="#DejaVuSans-30"/>
      </g>
     </g>
    </g>
    <g id="xtick_3">
     <g id="line2d_3">
      <g>
       <use style="stroke:#000000;stroke-width:0.8;" x="257.105455" xlink:href="#m314bae1dfe" y="256.32"/>
      </g>
     </g>
     <g id="text_3">
      <!-- 40 -->
      <g transform="translate(250.742955 270.918437)scale(0.1 -0.1)">
       <defs>
        <path d="M 2419 4116 
L 825 1625 
L 2419 1625 
L 2419 4116 
z
M 2253 4666 
L 3047 4666 
L 3047 1625 
L 3713 1625 
L 3713 1100 
L 3047 1100 
L 3047 0 
L 2419 0 
L 2419 1100 
L 313 1100 
L 313 1709 
L 2253 4666 
z
" id="DejaVuSans-34" transform="scale(0.015625)"/>
       </defs>
       <use xlink:href="#DejaVuSans-34"/>
       <use x="63.623047" xlink:href="#DejaVuSans-30"/>
      </g>
     </g>
    </g>
    <g id="xtick_4">
     <g id="line2d_4">
      <g>
       <use style="stroke:#000000;stroke-width:0.8;" x="353.454545" xlink:href="#m314bae1dfe" y="256.32"/>
      </g>
     </g>
     <g id="text_4">
      <!-- 60 -->
      <g transform="translate(347.092045 270.918437)scale(0.1 -0.1)">
       <defs>
        <path d="M 2113 2584 
Q 1688 2584 1439 2293 
Q 1191 2003 1191 1497 
Q 1191 994 1439 701 
Q 1688 409 2113 409 
Q 2538 409 2786 701 
Q 3034 994 3034 1497 
Q 3034 2003 2786 2293 
Q 2538 2584 2113 2584 
z
M 3366 4563 
L 3366 3988 
Q 3128 4100 2886 4159 
Q 2644 4219 2406 4219 
Q 1781 4219 1451 3797 
Q 1122 3375 1075 2522 
Q 1259 2794 1537 2939 
Q 1816 3084 2150 3084 
Q 2853 3084 3261 2657 
Q 3669 2231 3669 1497 
Q 3669 778 3244 343 
Q 2819 -91 2113 -91 
Q 1303 -91 875 529 
Q 447 1150 447 2328 
Q 447 3434 972 4092 
Q 1497 4750 2381 4750 
Q 2619 4750 2861 4703 
Q 3103 4656 3366 4563 
z
" id="DejaVuSans-36" transform="scale(0.015625)"/>
       </defs>
       <use xlink:href="#DejaVuSans-36"/>
       <use x="63.623047" xlink:href="#DejaVuSans-30"/>
      </g>
     </g>
    </g>
    <g id="xtick_5">
     <g id="line2d_5">
      <g>
       <use style="stroke:#000000;stroke-width:0.8;" x="449.803636" xlink:href="#m314bae1dfe" y="256.32"/>
      </g>
     </g>
     <g id="text_5">
      <!-- 80 -->
      <g transform="translate(443.441136 270.918437)scale(0.1 -0.1)">
       <defs>
        <path d="M 2034 2216 
Q 1584 2216 1326 1975 
Q 1069 1734 1069 1313 
Q 1069 891 1326 650 
Q 1584 409 2034 409 
Q 2484 409 2743 651 
Q 3003 894 3003 1313 
Q 3003 1734 2745 1975 
Q 2488 2216 2034 2216 
z
M 1403 2484 
Q 997 2584 770 2862 
Q 544 3141 544 3541 
Q 544 4100 942 4425 
Q 1341 4750 2034 4750 
Q 2731 4750 3128 4425 
Q 3525 4100 3525 3541 
Q 3525 3141 3298 2862 
Q 3072 2584 2669 2484 
Q 3125 2378 3379 2068 
Q 3634 1759 3634 1313 
Q 3634 634 3220 271 
Q 2806 -91 2034 -91 
Q 1263 -91 848 271 
Q 434 634 434 1313 
Q 434 1759 690 2068 
Q 947 2378 1403 2484 
z
M 1172 3481 
Q 1172 3119 1398 2916 
Q 1625 2713 2034 2713 
Q 2441 2713 2670 2916 
Q 2900 3119 2900 3481 
Q 2900 3844 2670 4047 
Q 2441 4250 2034 4250 
Q 1625 4250 1398 4047 
Q 1172 3844 1172 3481 
z
" id="DejaVuSans-38" transform="scale(0.015625)"/>
       </defs>
       <use xlink:href="#DejaVuSans-38"/>
       <use x="63.623047" xlink:href="#DejaVuSans-30"/>
      </g>
     </g>
    </g>
    <g id="xtick_6">
     <g id="line2d_6">
      <g>
       <use style="stroke:#000000;stroke-width:0.8;" x="546.152727" xlink:href="#m314bae1dfe" y="256.32"/>
      </g>
     </g>
     <g id="text_6">
      <!-- 100 -->
      <g transform="translate(536.608977 270.918437)scale(0.1 -0.1)">
       <defs>
        <path d="M 794 531 
L 1825 531 
L 1825 4091 
L 703 3866 
L 703 4441 
L 1819 4666 
L 2450 4666 
L 2450 531 
L 3481 531 
L 3481 0 
L 794 0 
L 794 531 
z
" id="DejaVuSans-31" transform="scale(0.015625)"/>
       </defs>
       <use xlink:href="#DejaVuSans-31"/>
       <use x="63.623047" xlink:href="#DejaVuSans-30"/>
       <use x="127.246094" xlink:href="#DejaVuSans-30"/>
      </g>
     </g>
    </g>
    <g id="text_7">
     <!-- x -->
     <g transform="translate(302.320625 284.596563)scale(0.1 -0.1)">
      <defs>
       <path d="M 3513 3500 
L 2247 1797 
L 3578 0 
L 2900 0 
L 1881 1375 
L 863 0 
L 184 0 
L 1544 1831 
L 300 3500 
L 978 3500 
L 1906 2253 
L 2834 3500 
L 3513 3500 
z
" id="DejaVuSans-78" transform="scale(0.015625)"/>
      </defs>
      <use xlink:href="#DejaVuSans-78"/>
     </g>
    </g>
   </g>
   <g id="matplotlib.axis_2">
    <g id="ytick_1">
     <g id="line2d_7">
      <defs>
       <path d="M 0 0 
L -3.5 0 
" id="m14e41193a9" style="stroke:#000000;stroke-width:0.8;"/>
      </defs>
      <g>
       <use style="stroke:#000000;stroke-width:0.8;" x="40.32" xlink:href="#m14e41193a9" y="240.34532"/>
      </g>
     </g>
     <g id="text_8">
      <!-- −2 -->
      <g transform="translate(18.577813 244.144539)scale(0.1 -0.1)">
       <defs>
        <path d="M 678 2272 
L 4684 2272 
L 4684 1741 
L 678 1741 
L 678 2272 
z
" id="DejaVuSans-2212" transform="scale(0.015625)"/>
       </defs>
       <use xlink:href="#DejaVuSans-2212"/>
       <use x="83.789062" xlink:href="#DejaVuSans-32"/>
      </g>
     </g>
    </g>
    <g id="ytick_2">
     <g id="line2d_8">
      <g>
       <use style="stroke:#000000;stroke-width:0.8;" x="40.32" xlink:href="#m14e41193a9" y="184.931412"/>
      </g>
     </g>
     <g id="text_9">
      <!-- −1 -->
      <g transform="translate(18.577813 188.730631)scale(0.1 -0.1)">
       <use xlink:href="#DejaVuSans-2212"/>
       <use x="83.789062" xlink:href="#DejaVuSans-31"/>
      </g>
     </g>
    </g>
    <g id="ytick_3">
     <g id="line2d_9">
      <g>
       <use style="stroke:#000000;stroke-width:0.8;" x="40.32" xlink:href="#m14e41193a9" y="129.517504"/>
      </g>
     </g>
     <g id="text_10">
      <!-- 0 -->
      <g transform="translate(26.9575 133.316723)scale(0.1 -0.1)">
       <use xlink:href="#DejaVuSans-30"/>
      </g>
     </g>
    </g>
    <g id="ytick_4">
     <g id="line2d_10">
      <g>
       <use style="stroke:#000000;stroke-width:0.8;" x="40.32" xlink:href="#m14e41193a9" y="74.103596"/>
      </g>
     </g>
     <g id="text_11">
      <!-- 1 -->
      <g transform="translate(26.9575 77.902815)scale(0.1 -0.1)">
       <use xlink:href="#DejaVuSans-31"/>
      </g>
     </g>
    </g>
    <g id="ytick_5">
     <g id="line2d_11">
      <g>
       <use style="stroke:#000000;stroke-width:0.8;" x="40.32" xlink:href="#m14e41193a9" y="18.689688"/>
      </g>
     </g>
     <g id="text_12">
      <!-- 2 -->
      <g transform="translate(26.9575 22.488907)scale(0.1 -0.1)">
       <use xlink:href="#DejaVuSans-32"/>
      </g>
     </g>
    </g>
    <g id="text_13">
     <!-- f(x) -->
     <g transform="translate(12.498125 138.221094)rotate(-90)scale(0.1 -0.1)">
      <defs>
       <path d="M 2375 4863 
L 2375 4384 
L 1825 4384 
Q 1516 4384 1395 4259 
Q 1275 4134 1275 3809 
L 1275 3500 
L 2222 3500 
L 2222 3053 
L 1275 3053 
L 1275 0 
L 697 0 
L 697 3053 
L 147 3053 
L 147 3500 
L 697 3500 
L 697 3744 
Q 697 4328 969 4595 
Q 1241 4863 1831 4863 
L 2375 4863 
z
" id="DejaVuSans-66" transform="scale(0.015625)"/>
       <path d="M 1984 4856 
Q 1566 4138 1362 3434 
Q 1159 2731 1159 2009 
Q 1159 1288 1364 580 
Q 1569 -128 1984 -844 
L 1484 -844 
Q 1016 -109 783 600 
Q 550 1309 550 2009 
Q 550 2706 781 3412 
Q 1013 4119 1484 4856 
L 1984 4856 
z
" id="DejaVuSans-28" transform="scale(0.015625)"/>
       <path d="M 513 4856 
L 1013 4856 
Q 1481 4119 1714 3412 
Q 1947 2706 1947 2009 
Q 1947 1309 1714 600 
Q 1481 -109 1013 -844 
L 513 -844 
Q 928 -128 1133 580 
Q 1338 1288 1338 2009 
Q 1338 2731 1133 3434 
Q 928 4138 513 4856 
z
" id="DejaVuSans-29" transform="scale(0.015625)"/>
      </defs>
      <use xlink:href="#DejaVuSans-66"/>
      <use x="35.205078" xlink:href="#DejaVuSans-28"/>
      <use x="74.21875" xlink:href="#DejaVuSans-78"/>
      <use x="133.398438" xlink:href="#DejaVuSans-29"/>
     </g>
    </g>
   </g>
   <g id="line2d_12">
    <path clip-path="url(#p008bcf5066)" d="M 64.407273 128.859424 
L 65.853956 134.002151 
L 66.818411 136.829563 
L 67.782867 138.771854 
L 68.265094 139.322918 
L 68.747322 139.557634 
L 69.22955 139.456537 
L 69.711777 139.00691 
L 70.194005 138.203119 
L 70.676233 137.046805 
L 71.640688 133.719923 
L 72.605143 129.184692 
L 74.051826 120.724944 
L 76.945192 102.85889 
L 77.909648 98.336096 
L 78.391876 96.600765 
L 78.874103 95.282169 
L 79.356331 94.423274 
L 79.838559 94.060758 
L 80.320786 94.224238 
L 80.803014 94.935603 
L 81.285242 96.208451 
L 81.767469 98.047656 
L 82.731925 103.399347 
L 83.69638 110.847203 
L 84.660835 120.103544 
L 86.107518 136.426367 
L 89.000885 170.529215 
L 89.96534 179.881449 
L 90.929795 187.144712 
L 91.412023 189.819478 
L 91.894251 191.77805 
L 92.376478 192.972454 
L 92.858706 193.364397 
L 93.340934 192.926029 
L 93.823161 191.640567 
L 94.305389 189.502766 
L 94.787617 186.519238 
L 95.752072 178.101417 
L 96.716527 166.678349 
L 97.680983 152.72247 
L 99.127666 128.463139 
L 102.021032 78.195251 
L 102.985487 64.204716 
L 103.949943 53.00782 
L 104.914398 45.296396 
L 105.396626 42.920108 
L 105.878853 41.598395 
L 106.361081 41.366104 
L 106.843309 42.244162 
L 107.325536 44.239099 
L 107.807764 47.342755 
L 108.289992 51.532198 
L 109.254447 63.003723 
L 110.218903 78.184013 
L 111.665586 106.3752 
L 116.005635 199.290691 
L 116.97009 214.804658 
L 117.934545 226.385695 
L 118.416773 230.484115 
L 118.899001 233.365619 
L 119.381229 234.982276 
L 119.863456 235.302061 
L 120.345684 234.309407 
L 120.827912 232.005537 
L 121.310139 228.40858 
L 121.792367 223.553457 
L 122.756822 210.290148 
L 123.721278 192.812717 
L 125.167961 160.54551 
L 129.50801 55.447871 
L 130.472465 38.000367 
L 131.436921 24.925772 
L 131.919148 20.253294 
L 132.401376 16.913512 
L 132.883604 14.952776 
L 133.365831 14.4 
L 133.848059 15.266244 
L 134.330287 17.544519 
L 134.812514 21.209834 
L 135.294742 26.219478 
L 136.259197 40.015624 
L 137.223653 58.26199 
L 138.670336 91.957838 
L 143.010385 201.34505 
L 143.97484 219.513214 
L 144.939296 233.213255 
L 145.421523 238.169101 
L 145.903751 241.777373 
L 146.385979 243.995835 
L 146.868206 244.8 
L 147.350434 244.183405 
L 147.832662 242.157653 
L 148.314889 238.752218 
L 148.797117 234.014019 
L 149.761572 220.810078 
L 150.726028 203.239845 
L 152.172711 170.73509 
L 156.51276 65.499401 
L 157.477215 48.044651 
L 158.441671 34.830788 
L 158.923898 30.010078 
L 159.406126 26.453681 
L 159.888354 24.196211 
L 160.370581 23.255426 
L 160.852809 23.632121 
L 161.335037 25.31025 
L 161.817265 28.257256 
L 162.299492 32.424629 
L 163.263948 44.151411 
L 164.228403 59.817043 
L 165.675086 88.777128 
L 169.532907 172.828872 
L 170.497363 189.674438 
L 171.461818 203.094612 
L 172.426274 212.510631 
L 172.908501 215.596234 
L 173.390729 217.564857 
L 173.872957 218.408516 
L 174.355184 218.133999 
L 174.837412 216.762577 
L 175.31964 214.329526 
L 175.801867 210.88346 
L 176.766323 201.208275 
L 177.730778 188.357122 
L 179.177461 164.827283 
L 183.035283 98.361414 
L 183.999738 85.489966 
L 184.964193 75.441153 
L 185.928649 68.602602 
L 186.410876 66.456926 
L 186.893104 65.173383 
L 187.375332 64.746791 
L 187.857559 65.160319 
L 188.339787 66.385967 
L 188.822015 68.385184 
L 189.304242 71.109634 
L 190.268698 78.497441 
L 191.233153 88.003604 
L 192.679836 104.831081 
L 195.573202 139.297491 
L 196.537658 148.736721 
L 197.502113 156.345803 
L 198.466568 161.829854 
L 198.948796 163.722479 
L 199.431024 165.03938 
L 199.913251 165.784911 
L 200.395479 165.972254 
L 200.877707 165.622992 
L 201.359934 164.766554 
L 201.842162 163.439546 
L 202.806618 159.551419 
L 203.771073 154.363635 
L 205.699984 141.964318 
L 207.146667 132.781948 
L 208.111122 127.526757 
L 209.075577 123.355092 
L 210.040033 120.490157 
L 210.52226 119.586704 
L 211.004488 119.042041 
L 211.486716 118.851574 
L 211.968943 119.00357 
L 212.451171 119.479471 
L 212.933399 120.254325 
L 213.897854 122.572463 
L 214.86231 125.653445 
L 217.755676 135.724408 
L 218.720131 138.078397 
L 219.202359 138.876948 
L 219.684586 139.380545 
L 220.166814 139.564355 
L 220.649042 139.40993 
L 221.131269 138.905632 
L 221.613497 138.046944 
L 222.095725 136.836648 
L 223.06018 133.409067 
L 224.024636 128.79007 
L 225.471319 120.25311 
L 227.882457 105.107622 
L 228.846912 100.091898 
L 229.811368 96.368097 
L 230.293595 95.118042 
L 230.775823 94.333802 
L 231.258051 94.051008 
L 231.740278 94.298123 
L 232.222506 95.095783 
L 232.704734 96.456262 
L 233.186962 98.383053 
L 234.151417 103.904095 
L 235.115872 111.50409 
L 236.080328 120.88453 
L 237.527011 137.320406 
L 240.420377 171.314149 
L 241.384832 180.526175 
L 242.349287 187.603704 
L 242.831515 190.17104 
L 243.313743 192.014152 
L 243.795971 193.086512 
L 244.278198 193.351395 
L 244.760426 192.78263 
L 245.242654 191.365193 
L 245.724881 189.095661 
L 246.207109 185.982496 
L 247.171564 177.319115 
L 248.13602 165.680791 
L 249.582703 143.752291 
L 254.40498 63.228004 
L 255.369435 52.278195 
L 256.33389 44.861088 
L 256.816118 42.645324 
L 257.298346 41.490419 
L 257.780573 41.429102 
L 258.262801 42.480099 
L 258.745029 44.647676 
L 259.227256 47.921386 
L 259.709484 52.276015 
L 260.673939 64.054378 
L 261.638395 79.4961 
L 263.085078 107.962265 
L 267.425127 200.614109 
L 268.389582 215.851915 
L 269.354038 227.097795 
L 269.836265 231.011478 
L 270.318493 233.69981 
L 270.800721 235.117275 
L 271.282948 235.23437 
L 271.765176 234.038111 
L 272.247404 231.532338 
L 272.729631 227.737793 
L 273.211859 222.691976 
L 274.176314 209.077873 
L 275.14077 191.305723 
L 276.587453 158.735429 
L 280.927502 53.959951 
L 281.891957 36.821273 
L 282.856413 24.117159 
L 283.33864 19.64739 
L 283.820868 16.518613 
L 284.303096 14.774514 
L 284.785324 14.441266 
L 285.267551 15.527137 
L 285.749779 18.022343 
L 286.232007 21.899122 
L 286.714234 27.112061 
L 287.67869 41.279999 
L 288.643145 59.836162 
L 290.089828 93.846764 
L 294.429877 202.892476 
L 295.394333 220.743942 
L 296.358788 234.066888 
L 296.841016 238.817468 
L 297.323243 242.212788 
L 297.805471 244.213335 
L 298.287699 244.7974 
L 298.769926 243.961323 
L 299.252154 241.719491 
L 299.734382 238.104117 
L 300.216609 233.164767 
L 301.181065 219.594847 
L 302.14552 201.721944 
L 303.592203 168.913192 
L 307.450025 73.957115 
L 308.41448 54.945596 
L 309.378935 39.853183 
L 310.343391 29.375397 
L 310.825618 26.018353 
L 311.307846 23.964094 
L 311.790074 23.227753 
L 312.272301 23.807504 
L 312.754529 25.684715 
L 313.236757 28.824316 
L 313.718984 33.175389 
L 314.68344 45.233959 
L 315.647895 61.170818 
L 317.094578 90.39763 
L 320.9524 174.239239 
L 321.916855 190.844872 
L 322.88131 203.972903 
L 323.845766 213.060933 
L 324.327993 215.974643 
L 324.810221 217.769164 
L 325.292449 218.438811 
L 325.774676 217.992639 
L 326.256904 216.454123 
L 326.739132 213.860654 
L 327.22136 210.262844 
L 328.185815 200.317423 
L 329.15027 187.250642 
L 330.596953 163.519326 
L 333.972547 104.517909 
L 334.937002 90.613218 
L 335.901458 79.313888 
L 336.865913 71.083429 
L 337.348141 68.213955 
L 337.830369 66.201678 
L 338.312596 65.051509 
L 338.794824 64.756435 
L 339.277052 65.297863 
L 339.759279 66.646111 
L 340.241507 68.761061 
L 341.205962 75.083225 
L 342.170418 83.767463 
L 343.617101 99.886489 
L 346.992695 140.084855 
L 347.95715 149.396053 
L 348.921605 156.849273 
L 349.886061 162.160607 
L 350.368288 163.964136 
L 350.850516 165.192024 
L 351.332744 165.850014 
L 351.814971 165.952623 
L 352.297199 165.522687 
L 352.779427 164.590794 
L 353.261654 163.194595 
L 354.22611 159.190407 
L 355.190565 153.92075 
L 357.119476 141.470041 
L 358.566159 132.343102 
L 359.530614 127.161439 
L 360.49507 123.084398 
L 361.459525 120.326759 
L 361.941753 119.478888 
L 362.42398 118.989571 
L 362.906208 118.853093 
L 363.388436 119.056641 
L 363.870663 119.580635 
L 364.352891 120.39918 
L 365.317346 122.788188 
L 366.281802 125.913677 
L 369.175168 135.93777 
L 370.139623 138.220221 
L 370.621851 138.974953 
L 371.104079 139.430488 
L 371.586306 139.562948 
L 372.068534 139.354914 
L 372.550762 138.795837 
L 373.032989 137.88232 
L 373.515217 136.618283 
L 374.479672 133.091012 
L 375.444128 128.389901 
L 376.890811 119.779197 
L 379.301949 104.683211 
L 380.266405 99.751805 
L 381.23086 96.145607 
L 381.713088 94.965104 
L 382.195315 94.256375 
L 382.677543 94.053988 
L 383.159771 94.385233 
L 383.641998 95.269485 
L 384.124226 96.717679 
L 384.606454 98.73192 
L 385.570909 104.421384 
L 386.535364 112.171723 
L 387.49982 121.673668 
L 388.946503 138.217496 
L 391.839869 172.089995 
L 392.804324 181.158053 
L 393.76878 188.046634 
L 394.251007 190.505209 
L 394.733235 192.231744 
L 395.215463 193.181176 
L 395.69769 193.318371 
L 396.179918 192.618847 
L 396.662146 191.069353 
L 397.144373 188.668291 
L 397.626601 185.425981 
L 398.591057 176.518878 
L 399.555512 164.668222 
L 401.002195 142.508461 
L 405.342244 68.756372 
L 406.306699 56.510063 
L 407.271155 47.527022 
L 407.753382 44.450151 
L 408.23561 42.396019 
L 408.717838 41.408707 
L 409.200066 41.518816 
L 409.682293 42.742854 
L 410.164521 45.08282 
L 410.646749 48.52598 
L 411.611204 58.597312 
L 412.575659 72.564302 
L 413.540115 89.817749 
L 414.986798 120.070559 
L 418.362391 193.174446 
L 419.326847 209.855276 
L 420.291302 222.879498 
L 420.77353 227.781925 
L 421.255758 231.509413 
L 421.737985 234.003478 
L 422.220213 235.221044 
L 422.702441 235.135137 
L 423.184668 233.735365 
L 423.666896 231.028186 
L 424.149124 227.036954 
L 425.113579 215.37891 
L 426.078034 199.273569 
L 427.04249 179.469359 
L 428.489173 144.946078 
L 431.382539 72.938006 
L 432.346994 52.493377 
L 433.31145 35.668887 
L 434.275905 23.339298 
L 434.758133 19.073691 
L 435.24036 16.156968 
L 435.722588 14.630137 
L 436.204816 14.516615 
L 436.687043 15.821879 
L 437.169271 18.533348 
L 437.651499 22.620502 
L 438.133726 28.035232 
L 439.098182 42.570807 
L 440.062637 61.431256 
L 441.50932 95.746436 
L 445.367142 194.194747 
L 446.331597 213.707158 
L 447.296052 229.037055 
L 448.260508 239.433285 
L 448.742735 242.614706 
L 449.224963 244.396816 
L 449.707191 244.760693 
L 450.189419 243.705478 
L 450.671646 241.248341 
L 451.153874 237.424218 
L 451.636102 232.285307 
L 452.600557 218.353701 
L 453.565012 200.183698 
L 455.011695 167.081042 
L 458.869517 72.364316 
L 459.833972 53.626404 
L 460.798428 38.869487 
L 461.762883 28.771237 
L 462.245111 25.614314 
L 462.727338 23.763629 
L 463.209566 23.231689 
L 463.691794 24.014048 
L 464.174021 26.089497 
L 464.656249 29.420471 
L 465.138477 33.953659 
L 466.102932 46.339861 
L 467.067387 62.54268 
L 468.51407 92.02689 
L 472.371892 175.633227 
L 473.336347 191.994348 
L 474.300803 204.826849 
L 475.265258 213.584846 
L 475.747486 216.326171 
L 476.229713 217.946455 
L 476.711941 218.442307 
L 477.194169 217.825044 
L 477.676396 216.120333 
L 478.158624 213.367663 
L 478.640852 209.61962 
L 479.605307 199.407778 
L 480.569762 186.130036 
L 482.016446 162.205236 
L 485.392039 103.361414 
L 486.356495 89.638021 
L 487.32095 78.562072 
L 488.285405 70.583404 
L 488.767633 67.845897 
L 489.249861 65.967138 
L 489.732088 64.950173 
L 490.214316 64.786171 
L 490.696544 65.454784 
L 491.178771 66.924669 
L 491.660999 69.154155 
L 492.625455 75.67858 
L 493.58991 84.521735 
L 495.036593 100.784343 
L 498.412187 140.863531 
L 499.376642 150.044173 
L 500.341097 157.339823 
L 501.305553 162.477611 
L 501.787781 164.191964 
L 502.270008 165.330977 
L 502.752236 165.901777 
L 503.234464 165.9202 
L 503.716691 165.410326 
L 504.198919 164.403883 
L 504.681147 162.939547 
L 505.645602 158.821777 
L 506.610057 153.473058 
L 509.021196 137.830726 
L 510.467879 129.232383 
L 511.432334 124.656117 
L 512.39679 121.321882 
L 512.879017 120.171939 
L 513.361245 119.379687 
L 513.843473 118.945579 
L 514.3257 118.862783 
L 514.807928 119.117413 
L 515.290156 119.688878 
L 515.772383 120.550352 
L 516.736839 123.008359 
L 518.183522 127.912091 
L 520.112432 134.720998 
L 521.076888 137.371014 
L 521.559115 138.355572 
L 522.041343 139.065769 
L 522.523571 139.472667 
L 523.005799 139.553357 
L 523.488026 139.291463 
L 523.970254 138.677524 
L 524.452482 137.709271 
L 524.934709 136.391765 
L 525.899165 132.765863 
L 526.86362 127.984338 
L 528.310303 119.303408 
L 530.721441 104.264047 
L 531.685897 99.419691 
L 532.650352 95.93346 
L 533.13258 94.823497 
L 533.614808 94.19111 
L 534.097035 94.069786 
L 534.579263 94.485628 
L 535.061491 95.456733 
L 535.543718 96.992693 
L 536.025946 99.094219 
L 536.990401 104.951106 
L 537.954857 112.849928 
L 538.919312 122.470728 
L 540.848223 144.972883 
L 542.777133 167.750785 
L 543.741589 177.558196 
L 544.706044 185.437934 
L 545.6705 190.821797 
L 546.152727 192.430672 
L 546.152727 192.430672 
" style="fill:none;stroke:#1f77b4;stroke-linecap:square;stroke-width:1.5;"/>
   </g>
   <g id="patch_3">
    <path d="M 40.32 256.32 
L 40.32 2.88 
" style="fill:none;stroke:#000000;stroke-linecap:square;stroke-linejoin:miter;stroke-width:0.8;"/>
   </g>
   <g id="patch_4">
    <path d="M 570.24 256.32 
L 570.24 2.88 
" style="fill:none;stroke:#000000;stroke-linecap:square;stroke-linejoin:miter;stroke-width:0.8;"/>
   </g>
   <g id="patch_5">
    <path d="M 40.32 256.32 
L 570.24 256.32 
" style="fill:none;stroke:#000000;stroke-linecap:square;stroke-linejoin:miter;stroke-width:0.8;"/>
   </g>
   <g id="patch_6">
    <path d="M 40.32 2.88 
L 570.24 2.88 
" style="fill:none;stroke:#000000;stroke-linecap:square;stroke-linejoin:miter;stroke-width:0.8;"/>
   </g>
  </g>
 </g>
 <defs>
  <clipPath id="p008bcf5066">
   <rect height="253.44" width="529.92" x="40.32" y="2.88"/>
  </clipPath>
 </defs>
</svg>
